<mxfile host="Electron" agent="Mozilla/5.0 (X11; Linux x86_64) AppleWebKit/537.36 (KHTML, like Gecko) draw.io/26.0.9 Chrome/128.0.6613.186 Electron/32.2.5 Safari/537.36" version="26.0.9">
  <diagram id="C5RBs43oDa-KdzZeNtuy" name="Page-1">
    <mxGraphModel dx="3728" dy="2367" grid="1" gridSize="10" guides="1" tooltips="1" connect="1" arrows="1" fold="1" page="1" pageScale="1" pageWidth="827" pageHeight="1169" math="0" shadow="0">
      <root>
        <mxCell id="WIyWlLk6GJQsqaUBKTNV-0" />
        <mxCell id="WIyWlLk6GJQsqaUBKTNV-1" parent="WIyWlLk6GJQsqaUBKTNV-0" />
        <mxCell id="hpsonxkA_LG1c_KUoqw7-232" value="" style="rounded=0;whiteSpace=wrap;html=1;fillColor=light-dark(#FFFFFF,#000000);" parent="WIyWlLk6GJQsqaUBKTNV-1" vertex="1">
          <mxGeometry x="-1450" y="-660" width="1310" height="1300" as="geometry" />
        </mxCell>
        <mxCell id="hpsonxkA_LG1c_KUoqw7-218" value="" style="rounded=0;whiteSpace=wrap;html=1;fillColor=light-dark(#FFFFFF,#000000);" parent="WIyWlLk6GJQsqaUBKTNV-1" vertex="1">
          <mxGeometry x="240" y="-660" width="1440" height="230" as="geometry" />
        </mxCell>
        <mxCell id="hpsonxkA_LG1c_KUoqw7-183" value="" style="rounded=0;whiteSpace=wrap;html=1;fillColor=light-dark(#FFFFFF,#000000);" parent="WIyWlLk6GJQsqaUBKTNV-1" vertex="1">
          <mxGeometry x="-35" y="970" width="1990" height="710" as="geometry" />
        </mxCell>
        <mxCell id="hpsonxkA_LG1c_KUoqw7-180" value="" style="rounded=0;whiteSpace=wrap;html=1;fillColor=light-dark(#FFFFFF,#000000);shadow=1;" parent="WIyWlLk6GJQsqaUBKTNV-1" vertex="1">
          <mxGeometry x="240" y="-380" width="1050" height="1180" as="geometry" />
        </mxCell>
        <mxCell id="hpsonxkA_LG1c_KUoqw7-5" value="User&amp;nbsp;: SoftDeletableEntity" style="swimlane;fontStyle=1;align=center;verticalAlign=top;childLayout=stackLayout;horizontal=1;startSize=26;horizontalStack=0;resizeParent=1;resizeParentMax=0;resizeLast=0;collapsible=1;marginBottom=0;whiteSpace=wrap;html=1;" parent="WIyWlLk6GJQsqaUBKTNV-1" vertex="1">
          <mxGeometry x="-1280" y="-408" width="405" height="476" as="geometry" />
        </mxCell>
        <mxCell id="hpsonxkA_LG1c_KUoqw7-6" value="+ Id: Guid (key)" style="text;strokeColor=none;fillColor=none;align=left;verticalAlign=top;spacingLeft=4;spacingRight=4;overflow=hidden;rotatable=0;points=[[0,0.5],[1,0.5]];portConstraint=eastwest;whiteSpace=wrap;html=1;" parent="hpsonxkA_LG1c_KUoqw7-5" vertex="1">
          <mxGeometry y="26" width="405" height="26" as="geometry" />
        </mxCell>
        <mxCell id="hpsonxkA_LG1c_KUoqw7-9" value="+ KeycloakId: Guid" style="text;strokeColor=none;fillColor=none;align=left;verticalAlign=top;spacingLeft=4;spacingRight=4;overflow=hidden;rotatable=0;points=[[0,0.5],[1,0.5]];portConstraint=eastwest;whiteSpace=wrap;html=1;" parent="hpsonxkA_LG1c_KUoqw7-5" vertex="1">
          <mxGeometry y="52" width="405" height="26" as="geometry" />
        </mxCell>
        <mxCell id="hpsonxkA_LG1c_KUoqw7-11" value="+ Username: string (Required)" style="text;strokeColor=none;fillColor=none;align=left;verticalAlign=top;spacingLeft=4;spacingRight=4;overflow=hidden;rotatable=0;points=[[0,0.5],[1,0.5]];portConstraint=eastwest;whiteSpace=wrap;html=1;" parent="hpsonxkA_LG1c_KUoqw7-5" vertex="1">
          <mxGeometry y="78" width="405" height="26" as="geometry" />
        </mxCell>
        <mxCell id="hpsonxkA_LG1c_KUoqw7-13" value="+ Firstname: string" style="text;strokeColor=none;fillColor=none;align=left;verticalAlign=top;spacingLeft=4;spacingRight=4;overflow=hidden;rotatable=0;points=[[0,0.5],[1,0.5]];portConstraint=eastwest;whiteSpace=wrap;html=1;" parent="hpsonxkA_LG1c_KUoqw7-5" vertex="1">
          <mxGeometry y="104" width="405" height="26" as="geometry" />
        </mxCell>
        <mxCell id="hpsonxkA_LG1c_KUoqw7-12" value="+ Lastname: string" style="text;strokeColor=none;fillColor=none;align=left;verticalAlign=top;spacingLeft=4;spacingRight=4;overflow=hidden;rotatable=0;points=[[0,0.5],[1,0.5]];portConstraint=eastwest;whiteSpace=wrap;html=1;" parent="hpsonxkA_LG1c_KUoqw7-5" vertex="1">
          <mxGeometry y="130" width="405" height="26" as="geometry" />
        </mxCell>
        <mxCell id="hpsonxkA_LG1c_KUoqw7-15" value="+ Email: string (Required)" style="text;strokeColor=none;fillColor=none;align=left;verticalAlign=top;spacingLeft=4;spacingRight=4;overflow=hidden;rotatable=0;points=[[0,0.5],[1,0.5]];portConstraint=eastwest;whiteSpace=wrap;html=1;" parent="hpsonxkA_LG1c_KUoqw7-5" vertex="1">
          <mxGeometry y="156" width="405" height="26" as="geometry" />
        </mxCell>
        <mxCell id="hpsonxkA_LG1c_KUoqw7-17" value="+ AvatarUrl: string" style="text;strokeColor=none;fillColor=none;align=left;verticalAlign=top;spacingLeft=4;spacingRight=4;overflow=hidden;rotatable=0;points=[[0,0.5],[1,0.5]];portConstraint=eastwest;whiteSpace=wrap;html=1;" parent="hpsonxkA_LG1c_KUoqw7-5" vertex="1">
          <mxGeometry y="182" width="405" height="26" as="geometry" />
        </mxCell>
        <mxCell id="hpsonxkA_LG1c_KUoqw7-18" value="+ CreatedAt: DateTime" style="text;strokeColor=none;fillColor=none;align=left;verticalAlign=top;spacingLeft=4;spacingRight=4;overflow=hidden;rotatable=0;points=[[0,0.5],[1,0.5]];portConstraint=eastwest;whiteSpace=wrap;html=1;" parent="hpsonxkA_LG1c_KUoqw7-5" vertex="1">
          <mxGeometry y="208" width="405" height="26" as="geometry" />
        </mxCell>
        <mxCell id="hpsonxkA_LG1c_KUoqw7-16" value="+ UpdatedAt: DateTime" style="text;strokeColor=none;fillColor=none;align=left;verticalAlign=top;spacingLeft=4;spacingRight=4;overflow=hidden;rotatable=0;points=[[0,0.5],[1,0.5]];portConstraint=eastwest;whiteSpace=wrap;html=1;" parent="hpsonxkA_LG1c_KUoqw7-5" vertex="1">
          <mxGeometry y="234" width="405" height="26" as="geometry" />
        </mxCell>
        <mxCell id="hpsonxkA_LG1c_KUoqw7-7" value="" style="line;strokeWidth=1;fillColor=none;align=left;verticalAlign=middle;spacingTop=-1;spacingLeft=3;spacingRight=3;rotatable=0;labelPosition=right;points=[];portConstraint=eastwest;strokeColor=inherit;" parent="hpsonxkA_LG1c_KUoqw7-5" vertex="1">
          <mxGeometry y="260" width="405" height="8" as="geometry" />
        </mxCell>
        <mxCell id="hpsonxkA_LG1c_KUoqw7-270" value="+ Cart: Cart (virtual)" style="text;strokeColor=none;fillColor=none;align=left;verticalAlign=top;spacingLeft=4;spacingRight=4;overflow=hidden;rotatable=0;points=[[0,0.5],[1,0.5]];portConstraint=eastwest;whiteSpace=wrap;html=1;" parent="hpsonxkA_LG1c_KUoqw7-5" vertex="1">
          <mxGeometry y="268" width="405" height="26" as="geometry" />
        </mxCell>
        <mxCell id="hpsonxkA_LG1c_KUoqw7-267" value="+ UserLibrarGames: ICollection&amp;lt;UserLibrarGame&amp;gt; (virtual)" style="text;strokeColor=none;fillColor=none;align=left;verticalAlign=top;spacingLeft=4;spacingRight=4;overflow=hidden;rotatable=0;points=[[0,0.5],[1,0.5]];portConstraint=eastwest;whiteSpace=wrap;html=1;" parent="hpsonxkA_LG1c_KUoqw7-5" vertex="1">
          <mxGeometry y="294" width="405" height="26" as="geometry" />
        </mxCell>
        <mxCell id="hpsonxkA_LG1c_KUoqw7-268" value="+ Reviews: ICollection&amp;lt;Review&amp;gt; (virtual)" style="text;strokeColor=none;fillColor=none;align=left;verticalAlign=top;spacingLeft=4;spacingRight=4;overflow=hidden;rotatable=0;points=[[0,0.5],[1,0.5]];portConstraint=eastwest;whiteSpace=wrap;html=1;" parent="hpsonxkA_LG1c_KUoqw7-5" vertex="1">
          <mxGeometry y="320" width="405" height="26" as="geometry" />
        </mxCell>
        <mxCell id="hpsonxkA_LG1c_KUoqw7-271" value="+ Payments: ICollection&amp;lt;Payment&amp;gt; (virtual)" style="text;strokeColor=none;fillColor=none;align=left;verticalAlign=top;spacingLeft=4;spacingRight=4;overflow=hidden;rotatable=0;points=[[0,0.5],[1,0.5]];portConstraint=eastwest;whiteSpace=wrap;html=1;" parent="hpsonxkA_LG1c_KUoqw7-5" vertex="1">
          <mxGeometry y="346" width="405" height="26" as="geometry" />
        </mxCell>
        <mxCell id="hpsonxkA_LG1c_KUoqw7-272" value="+ Orders: ICollection&amp;lt;Order&amp;gt; (virtual)" style="text;strokeColor=none;fillColor=none;align=left;verticalAlign=top;spacingLeft=4;spacingRight=4;overflow=hidden;rotatable=0;points=[[0,0.5],[1,0.5]];portConstraint=eastwest;whiteSpace=wrap;html=1;" parent="hpsonxkA_LG1c_KUoqw7-5" vertex="1">
          <mxGeometry y="372" width="405" height="26" as="geometry" />
        </mxCell>
        <mxCell id="hpsonxkA_LG1c_KUoqw7-307" value="+&amp;nbsp;&lt;span style=&quot;text-align: center;&quot;&gt;UserAchievements&lt;/span&gt;: ICollection&amp;lt;&lt;span style=&quot;text-align: center;&quot;&gt;UserAchievement&lt;/span&gt;&amp;gt; (virtual)" style="text;strokeColor=none;fillColor=none;align=left;verticalAlign=top;spacingLeft=4;spacingRight=4;overflow=hidden;rotatable=0;points=[[0,0.5],[1,0.5]];portConstraint=eastwest;whiteSpace=wrap;html=1;" parent="hpsonxkA_LG1c_KUoqw7-5" vertex="1">
          <mxGeometry y="398" width="405" height="26" as="geometry" />
        </mxCell>
        <mxCell id="hpsonxkA_LG1c_KUoqw7-350" value="+&amp;nbsp;&lt;span style=&quot;text-align: center;&quot;&gt;SupportTickets&lt;/span&gt;: ICollection&amp;lt;&lt;span style=&quot;text-align: center;&quot;&gt;SupportTicket&lt;/span&gt;&amp;gt; (virtual)" style="text;strokeColor=none;fillColor=none;align=left;verticalAlign=top;spacingLeft=4;spacingRight=4;overflow=hidden;rotatable=0;points=[[0,0.5],[1,0.5]];portConstraint=eastwest;whiteSpace=wrap;html=1;" parent="hpsonxkA_LG1c_KUoqw7-5" vertex="1">
          <mxGeometry y="424" width="405" height="26" as="geometry" />
        </mxCell>
        <mxCell id="hpsonxkA_LG1c_KUoqw7-351" value="+&amp;nbsp;&lt;span style=&quot;text-align: center;&quot;&gt;TicketMessages&lt;/span&gt;: ICollection&amp;lt;&lt;span style=&quot;text-align: center;&quot;&gt;TicketMessage&lt;/span&gt;&amp;gt; (virtual)" style="text;strokeColor=none;fillColor=none;align=left;verticalAlign=top;spacingLeft=4;spacingRight=4;overflow=hidden;rotatable=0;points=[[0,0.5],[1,0.5]];portConstraint=eastwest;whiteSpace=wrap;html=1;" parent="hpsonxkA_LG1c_KUoqw7-5" vertex="1">
          <mxGeometry y="450" width="405" height="26" as="geometry" />
        </mxCell>
        <mxCell id="hpsonxkA_LG1c_KUoqw7-20" value="Game : Product" style="swimlane;fontStyle=1;align=center;verticalAlign=top;childLayout=stackLayout;horizontal=1;startSize=26;horizontalStack=0;resizeParent=1;resizeParentMax=0;resizeLast=0;collapsible=1;marginBottom=0;whiteSpace=wrap;html=1;" parent="WIyWlLk6GJQsqaUBKTNV-1" vertex="1">
          <mxGeometry x="820" y="110" width="340" height="372" as="geometry" />
        </mxCell>
        <mxCell id="hpsonxkA_LG1c_KUoqw7-26" value="+ ReleaseDate: DateTime" style="text;strokeColor=none;fillColor=none;align=left;verticalAlign=top;spacingLeft=4;spacingRight=4;overflow=hidden;rotatable=0;points=[[0,0.5],[1,0.5]];portConstraint=eastwest;whiteSpace=wrap;html=1;" parent="hpsonxkA_LG1c_KUoqw7-20" vertex="1">
          <mxGeometry y="26" width="340" height="26" as="geometry" />
        </mxCell>
        <mxCell id="hpsonxkA_LG1c_KUoqw7-27" value="+ SystemRequirements: string" style="text;strokeColor=none;fillColor=none;align=left;verticalAlign=top;spacingLeft=4;spacingRight=4;overflow=hidden;rotatable=0;points=[[0,0.5],[1,0.5]];portConstraint=eastwest;whiteSpace=wrap;html=1;" parent="hpsonxkA_LG1c_KUoqw7-20" vertex="1">
          <mxGeometry y="52" width="340" height="26" as="geometry" />
        </mxCell>
        <mxCell id="hpsonxkA_LG1c_KUoqw7-28" value="+ StorageUrl: string" style="text;strokeColor=none;fillColor=none;align=left;verticalAlign=top;spacingLeft=4;spacingRight=4;overflow=hidden;rotatable=0;points=[[0,0.5],[1,0.5]];portConstraint=eastwest;whiteSpace=wrap;html=1;" parent="hpsonxkA_LG1c_KUoqw7-20" vertex="1">
          <mxGeometry y="78" width="340" height="26" as="geometry" />
        </mxCell>
        <mxCell id="hpsonxkA_LG1c_KUoqw7-32" value="" style="line;strokeWidth=1;fillColor=none;align=left;verticalAlign=middle;spacingTop=-1;spacingLeft=3;spacingRight=3;rotatable=0;labelPosition=right;points=[];portConstraint=eastwest;strokeColor=inherit;" parent="hpsonxkA_LG1c_KUoqw7-20" vertex="1">
          <mxGeometry y="104" width="340" height="8" as="geometry" />
        </mxCell>
        <mxCell id="hpsonxkA_LG1c_KUoqw7-34" value="+ GameCategories: ICollection&amp;lt;GameCategory&amp;gt; (virtual)" style="text;strokeColor=none;fillColor=none;align=left;verticalAlign=top;spacingLeft=4;spacingRight=4;overflow=hidden;rotatable=0;points=[[0,0.5],[1,0.5]];portConstraint=eastwest;whiteSpace=wrap;html=1;" parent="hpsonxkA_LG1c_KUoqw7-20" vertex="1">
          <mxGeometry y="112" width="340" height="26" as="geometry" />
        </mxCell>
        <mxCell id="hpsonxkA_LG1c_KUoqw7-142" value="+ Addons: ICollection&amp;lt;GameAddon&amp;gt; (virtual)" style="text;strokeColor=none;fillColor=none;align=left;verticalAlign=top;spacingLeft=4;spacingRight=4;overflow=hidden;rotatable=0;points=[[0,0.5],[1,0.5]];portConstraint=eastwest;whiteSpace=wrap;html=1;" parent="hpsonxkA_LG1c_KUoqw7-20" vertex="1">
          <mxGeometry y="138" width="340" height="26" as="geometry" />
        </mxCell>
        <mxCell id="hpsonxkA_LG1c_KUoqw7-85" value="+ ProductDiscounts: ICollection&amp;lt;ProductDiscount&amp;gt; (virtual)" style="text;strokeColor=none;fillColor=none;align=left;verticalAlign=top;spacingLeft=4;spacingRight=4;overflow=hidden;rotatable=0;points=[[0,0.5],[1,0.5]];portConstraint=eastwest;whiteSpace=wrap;html=1;" parent="hpsonxkA_LG1c_KUoqw7-20" vertex="1">
          <mxGeometry y="164" width="340" height="26" as="geometry" />
        </mxCell>
        <mxCell id="hpsonxkA_LG1c_KUoqw7-172" value="+ GameTags: ICollection&amp;lt;GameTag&amp;gt; (virtual)" style="text;strokeColor=none;fillColor=none;align=left;verticalAlign=top;spacingLeft=4;spacingRight=4;overflow=hidden;rotatable=0;points=[[0,0.5],[1,0.5]];portConstraint=eastwest;whiteSpace=wrap;html=1;" parent="hpsonxkA_LG1c_KUoqw7-20" vertex="1">
          <mxGeometry y="190" width="340" height="26" as="geometry" />
        </mxCell>
        <mxCell id="hpsonxkA_LG1c_KUoqw7-273" value="+ CartItems: ICollection&amp;lt;CatrItem&amp;gt; (virtual)" style="text;strokeColor=none;fillColor=none;align=left;verticalAlign=top;spacingLeft=4;spacingRight=4;overflow=hidden;rotatable=0;points=[[0,0.5],[1,0.5]];portConstraint=eastwest;whiteSpace=wrap;html=1;" parent="hpsonxkA_LG1c_KUoqw7-20" vertex="1">
          <mxGeometry y="216" width="340" height="26" as="geometry" />
        </mxCell>
        <mxCell id="hpsonxkA_LG1c_KUoqw7-274" value="+ GameTags: ICollection&amp;lt;GameTag&amp;gt; (virtual)" style="text;strokeColor=none;fillColor=none;align=left;verticalAlign=top;spacingLeft=4;spacingRight=4;overflow=hidden;rotatable=0;points=[[0,0.5],[1,0.5]];portConstraint=eastwest;whiteSpace=wrap;html=1;" parent="hpsonxkA_LG1c_KUoqw7-20" vertex="1">
          <mxGeometry y="242" width="340" height="26" as="geometry" />
        </mxCell>
        <mxCell id="hpsonxkA_LG1c_KUoqw7-275" value="+ OrderItems: ICollection&amp;lt;OrderItem&amp;gt; (virtual)" style="text;strokeColor=none;fillColor=none;align=left;verticalAlign=top;spacingLeft=4;spacingRight=4;overflow=hidden;rotatable=0;points=[[0,0.5],[1,0.5]];portConstraint=eastwest;whiteSpace=wrap;html=1;" parent="hpsonxkA_LG1c_KUoqw7-20" vertex="1">
          <mxGeometry y="268" width="340" height="26" as="geometry" />
        </mxCell>
        <mxCell id="hpsonxkA_LG1c_KUoqw7-278" value="+&amp;nbsp;&lt;span style=&quot;text-align: center;&quot;&gt;UserLibraryGames&lt;/span&gt;: ICollection&amp;lt;&lt;span style=&quot;text-align: center;&quot;&gt;UserLibraryGame&lt;/span&gt;&amp;gt; (virtual)" style="text;strokeColor=none;fillColor=none;align=left;verticalAlign=top;spacingLeft=4;spacingRight=4;overflow=hidden;rotatable=0;points=[[0,0.5],[1,0.5]];portConstraint=eastwest;whiteSpace=wrap;html=1;" parent="hpsonxkA_LG1c_KUoqw7-20" vertex="1">
          <mxGeometry y="294" width="340" height="26" as="geometry" />
        </mxCell>
        <mxCell id="hpsonxkA_LG1c_KUoqw7-279" value="+&amp;nbsp;&lt;span style=&quot;text-align: center;&quot;&gt;Reviews&lt;/span&gt;: ICollection&amp;lt;&lt;span style=&quot;text-align: center;&quot;&gt;Review&lt;/span&gt;&amp;gt; (virtual)" style="text;strokeColor=none;fillColor=none;align=left;verticalAlign=top;spacingLeft=4;spacingRight=4;overflow=hidden;rotatable=0;points=[[0,0.5],[1,0.5]];portConstraint=eastwest;whiteSpace=wrap;html=1;" parent="hpsonxkA_LG1c_KUoqw7-20" vertex="1">
          <mxGeometry y="320" width="340" height="26" as="geometry" />
        </mxCell>
        <mxCell id="xZ0Wn-mFjBRzZuzrVX0f-6" value="+ Discounts: ICollection&amp;lt;Discount&amp;gt; (virtual)" style="text;strokeColor=none;fillColor=none;align=left;verticalAlign=top;spacingLeft=4;spacingRight=4;overflow=hidden;rotatable=0;points=[[0,0.5],[1,0.5]];portConstraint=eastwest;whiteSpace=wrap;html=1;" parent="hpsonxkA_LG1c_KUoqw7-20" vertex="1">
          <mxGeometry y="346" width="340" height="26" as="geometry" />
        </mxCell>
        <mxCell id="hpsonxkA_LG1c_KUoqw7-35" value="GameCategory" style="swimlane;fontStyle=1;align=center;verticalAlign=top;childLayout=stackLayout;horizontal=1;startSize=26;horizontalStack=0;resizeParent=1;resizeParentMax=0;resizeLast=0;collapsible=1;marginBottom=0;whiteSpace=wrap;html=1;" parent="WIyWlLk6GJQsqaUBKTNV-1" vertex="1">
          <mxGeometry x="840" y="-90" width="300" height="164" as="geometry" />
        </mxCell>
        <mxCell id="rTpIlooQs98uF8OyqGEr-5" value="+ Id: Guid (key)" style="text;strokeColor=none;fillColor=none;align=left;verticalAlign=top;spacingLeft=4;spacingRight=4;overflow=hidden;rotatable=0;points=[[0,0.5],[1,0.5]];portConstraint=eastwest;whiteSpace=wrap;html=1;" parent="hpsonxkA_LG1c_KUoqw7-35" vertex="1">
          <mxGeometry y="26" width="300" height="26" as="geometry" />
        </mxCell>
        <mxCell id="hpsonxkA_LG1c_KUoqw7-39" value="+ GameId: Guid (foreighnkey) (key)" style="text;strokeColor=none;fillColor=none;align=left;verticalAlign=top;spacingLeft=4;spacingRight=4;overflow=hidden;rotatable=0;points=[[0,0.5],[1,0.5]];portConstraint=eastwest;whiteSpace=wrap;html=1;" parent="hpsonxkA_LG1c_KUoqw7-35" vertex="1">
          <mxGeometry y="52" width="300" height="26" as="geometry" />
        </mxCell>
        <mxCell id="hpsonxkA_LG1c_KUoqw7-41" value="+ CategoryId: Guid (foreighnkey) (key)" style="text;strokeColor=none;fillColor=none;align=left;verticalAlign=top;spacingLeft=4;spacingRight=4;overflow=hidden;rotatable=0;points=[[0,0.5],[1,0.5]];portConstraint=eastwest;whiteSpace=wrap;html=1;" parent="hpsonxkA_LG1c_KUoqw7-35" vertex="1">
          <mxGeometry y="78" width="300" height="26" as="geometry" />
        </mxCell>
        <mxCell id="hpsonxkA_LG1c_KUoqw7-49" value="" style="line;strokeWidth=1;fillColor=none;align=left;verticalAlign=middle;spacingTop=-1;spacingLeft=3;spacingRight=3;rotatable=0;labelPosition=right;points=[];portConstraint=eastwest;strokeColor=inherit;" parent="hpsonxkA_LG1c_KUoqw7-35" vertex="1">
          <mxGeometry y="104" width="300" height="8" as="geometry" />
        </mxCell>
        <mxCell id="hpsonxkA_LG1c_KUoqw7-40" value="+ Game: Game (virtual)" style="text;strokeColor=none;fillColor=none;align=left;verticalAlign=top;spacingLeft=4;spacingRight=4;overflow=hidden;rotatable=0;points=[[0,0.5],[1,0.5]];portConstraint=eastwest;whiteSpace=wrap;html=1;" parent="hpsonxkA_LG1c_KUoqw7-35" vertex="1">
          <mxGeometry y="112" width="300" height="26" as="geometry" />
        </mxCell>
        <mxCell id="hpsonxkA_LG1c_KUoqw7-42" value="+ Category: Category (virtual)" style="text;strokeColor=none;fillColor=none;align=left;verticalAlign=top;spacingLeft=4;spacingRight=4;overflow=hidden;rotatable=0;points=[[0,0.5],[1,0.5]];portConstraint=eastwest;whiteSpace=wrap;html=1;" parent="hpsonxkA_LG1c_KUoqw7-35" vertex="1">
          <mxGeometry y="138" width="300" height="26" as="geometry" />
        </mxCell>
        <mxCell id="hpsonxkA_LG1c_KUoqw7-50" value="Category&amp;nbsp;: SoftDeletableEntity" style="swimlane;fontStyle=1;align=center;verticalAlign=top;childLayout=stackLayout;horizontal=1;startSize=26;horizontalStack=0;resizeParent=1;resizeParentMax=0;resizeLast=0;collapsible=1;marginBottom=0;whiteSpace=wrap;html=1;" parent="WIyWlLk6GJQsqaUBKTNV-1" vertex="1">
          <mxGeometry x="825" y="-260" width="330" height="112" as="geometry" />
        </mxCell>
        <mxCell id="hpsonxkA_LG1c_KUoqw7-51" value="+ Id: Guid (key)" style="text;strokeColor=none;fillColor=none;align=left;verticalAlign=top;spacingLeft=4;spacingRight=4;overflow=hidden;rotatable=0;points=[[0,0.5],[1,0.5]];portConstraint=eastwest;whiteSpace=wrap;html=1;" parent="hpsonxkA_LG1c_KUoqw7-50" vertex="1">
          <mxGeometry y="26" width="330" height="26" as="geometry" />
        </mxCell>
        <mxCell id="hpsonxkA_LG1c_KUoqw7-52" value="+ Name: string" style="text;strokeColor=none;fillColor=none;align=left;verticalAlign=top;spacingLeft=4;spacingRight=4;overflow=hidden;rotatable=0;points=[[0,0.5],[1,0.5]];portConstraint=eastwest;whiteSpace=wrap;html=1;" parent="hpsonxkA_LG1c_KUoqw7-50" vertex="1">
          <mxGeometry y="52" width="330" height="26" as="geometry" />
        </mxCell>
        <mxCell id="hpsonxkA_LG1c_KUoqw7-55" value="" style="line;strokeWidth=1;fillColor=none;align=left;verticalAlign=middle;spacingTop=-1;spacingLeft=3;spacingRight=3;rotatable=0;labelPosition=right;points=[];portConstraint=eastwest;strokeColor=inherit;" parent="hpsonxkA_LG1c_KUoqw7-50" vertex="1">
          <mxGeometry y="78" width="330" height="8" as="geometry" />
        </mxCell>
        <mxCell id="hpsonxkA_LG1c_KUoqw7-53" value="+ GameCategories: ICollection&amp;lt;GameCategory&amp;gt; (virtual)" style="text;strokeColor=none;fillColor=none;align=left;verticalAlign=top;spacingLeft=4;spacingRight=4;overflow=hidden;rotatable=0;points=[[0,0.5],[1,0.5]];portConstraint=eastwest;whiteSpace=wrap;html=1;" parent="hpsonxkA_LG1c_KUoqw7-50" vertex="1">
          <mxGeometry y="86" width="330" height="26" as="geometry" />
        </mxCell>
        <mxCell id="hpsonxkA_LG1c_KUoqw7-56" value="CartItem : SoftDeletableEntity&lt;span style=&quot;color: rgba(0, 0, 0, 0); font-family: monospace; font-size: 0px; font-weight: 400; text-align: start; text-wrap: nowrap;&quot;&gt;%3CmxGraphModel%3E%3Croot%3E%3CmxCell%20id%3D%220%22%2F%3E%3CmxCell%20id%3D%221%22%20parent%3D%220%22%2F%3E%3CmxCell%20id%3D%222%22%20value%3D%22%22%20style%3D%22html%3D1%3BverticalAlign%3Dbottom%3BendArrow%3Dblock%3Bcurved%3D0%3Brounded%3D0%3B%22%20edge%3D%221%22%20parent%3D%221%22%3E%3CmxGeometry%20width%3D%2280%22%20relative%3D%221%22%20as%3D%22geometry%22%3E%3CmxPoint%20x%3D%221030%22%20y%3D%22630%22%20as%3D%22sourcePoint%22%2F%3E%3CmxPoint%20x%3D%221030%22%20y%3D%22568%22%20as%3D%22targetPoint%22%2F%3E%3C%2FmxGeometry%3E%3C%2FmxCell%3E%3C%2Froot%3E%3C%2FmxGraphModel%3E&lt;/span&gt;&lt;span style=&quot;color: rgba(0, 0, 0, 0); font-family: monospace; font-size: 0px; font-weight: 400; text-align: start; text-wrap: nowrap;&quot;&gt;%3CmxGraphModel%3E%3Croot%3E%3CmxCell%20id%3D%220%22%2F%3E%3CmxCell%20id%3D%221%22%20parent%3D%220%22%2F%3E%3CmxCell%20id%3D%222%22%20value%3D%22%22%20style%3D%22html%3D1%3BverticalAlign%3Dbottom%3BendArrow%3Dblock%3Bcurved%3D0%3Brounded%3D0%3B%22%20edge%3D%221%22%20parent%3D%221%22%3E%3CmxGeometry%20width%3D%2280%22%20relative%3D%221%22%20as%3D%22geometry%22%3E%3CmxPoint%20x%3D%221030%22%20y%3D%22630%22%20as%3D%22sourcePoint%22%2F%3E%3CmxPoint%20x%3D%221030%22%20y%3D%22568%22%20as%3D%22targetPoint%22%2F%3E%3C%2FmxGeometry%3E%3C%2FmxCell%3E%3C%2Froot%3E%3C%2FmxGraphModel%3E&lt;/span&gt;" style="swimlane;fontStyle=1;align=center;verticalAlign=top;childLayout=stackLayout;horizontal=1;startSize=26;horizontalStack=0;resizeParent=1;resizeParentMax=0;resizeLast=0;collapsible=1;marginBottom=0;whiteSpace=wrap;html=1;" parent="WIyWlLk6GJQsqaUBKTNV-1" vertex="1">
          <mxGeometry x="60" y="1100" width="300" height="164" as="geometry" />
        </mxCell>
        <mxCell id="rTpIlooQs98uF8OyqGEr-6" value="+ Id: Guid (key)" style="text;strokeColor=none;fillColor=none;align=left;verticalAlign=top;spacingLeft=4;spacingRight=4;overflow=hidden;rotatable=0;points=[[0,0.5],[1,0.5]];portConstraint=eastwest;whiteSpace=wrap;html=1;" parent="hpsonxkA_LG1c_KUoqw7-56" vertex="1">
          <mxGeometry y="26" width="300" height="26" as="geometry" />
        </mxCell>
        <mxCell id="hpsonxkA_LG1c_KUoqw7-58" value="+ CartId: Guid (foreighnkey)&amp;nbsp;" style="text;strokeColor=none;fillColor=none;align=left;verticalAlign=top;spacingLeft=4;spacingRight=4;overflow=hidden;rotatable=0;points=[[0,0.5],[1,0.5]];portConstraint=eastwest;whiteSpace=wrap;html=1;" parent="hpsonxkA_LG1c_KUoqw7-56" vertex="1">
          <mxGeometry y="52" width="300" height="26" as="geometry" />
        </mxCell>
        <mxCell id="hpsonxkA_LG1c_KUoqw7-57" value="+ ProductId: Guid (foreighnkey)" style="text;strokeColor=none;fillColor=none;align=left;verticalAlign=top;spacingLeft=4;spacingRight=4;overflow=hidden;rotatable=0;points=[[0,0.5],[1,0.5]];portConstraint=eastwest;whiteSpace=wrap;html=1;" parent="hpsonxkA_LG1c_KUoqw7-56" vertex="1">
          <mxGeometry y="78" width="300" height="26" as="geometry" />
        </mxCell>
        <mxCell id="hpsonxkA_LG1c_KUoqw7-59" value="" style="line;strokeWidth=1;fillColor=none;align=left;verticalAlign=middle;spacingTop=-1;spacingLeft=3;spacingRight=3;rotatable=0;labelPosition=right;points=[];portConstraint=eastwest;strokeColor=inherit;" parent="hpsonxkA_LG1c_KUoqw7-56" vertex="1">
          <mxGeometry y="104" width="300" height="8" as="geometry" />
        </mxCell>
        <mxCell id="hpsonxkA_LG1c_KUoqw7-61" value="+ Cart: Cart (virtual)" style="text;strokeColor=none;fillColor=none;align=left;verticalAlign=top;spacingLeft=4;spacingRight=4;overflow=hidden;rotatable=0;points=[[0,0.5],[1,0.5]];portConstraint=eastwest;whiteSpace=wrap;html=1;" parent="hpsonxkA_LG1c_KUoqw7-56" vertex="1">
          <mxGeometry y="112" width="300" height="26" as="geometry" />
        </mxCell>
        <mxCell id="hpsonxkA_LG1c_KUoqw7-60" value="+ Product: Product (virtual)" style="text;strokeColor=none;fillColor=none;align=left;verticalAlign=top;spacingLeft=4;spacingRight=4;overflow=hidden;rotatable=0;points=[[0,0.5],[1,0.5]];portConstraint=eastwest;whiteSpace=wrap;html=1;" parent="hpsonxkA_LG1c_KUoqw7-56" vertex="1">
          <mxGeometry y="138" width="300" height="26" as="geometry" />
        </mxCell>
        <mxCell id="hpsonxkA_LG1c_KUoqw7-65" value="SoftDeletableEntity (abstract)" style="swimlane;fontStyle=1;align=center;verticalAlign=top;childLayout=stackLayout;horizontal=1;startSize=26;horizontalStack=0;resizeParent=1;resizeParentMax=0;resizeLast=0;collapsible=1;marginBottom=0;whiteSpace=wrap;html=1;" parent="WIyWlLk6GJQsqaUBKTNV-1" vertex="1">
          <mxGeometry x="320" y="-545" width="330" height="60" as="geometry" />
        </mxCell>
        <mxCell id="hpsonxkA_LG1c_KUoqw7-66" value="+ IsDeleted: bool" style="text;strokeColor=none;fillColor=none;align=left;verticalAlign=top;spacingLeft=4;spacingRight=4;overflow=hidden;rotatable=0;points=[[0,0.5],[1,0.5]];portConstraint=eastwest;whiteSpace=wrap;html=1;" parent="hpsonxkA_LG1c_KUoqw7-65" vertex="1">
          <mxGeometry y="26" width="330" height="26" as="geometry" />
        </mxCell>
        <mxCell id="hpsonxkA_LG1c_KUoqw7-68" value="" style="line;strokeWidth=1;fillColor=none;align=left;verticalAlign=middle;spacingTop=-1;spacingLeft=3;spacingRight=3;rotatable=0;labelPosition=right;points=[];portConstraint=eastwest;strokeColor=inherit;" parent="hpsonxkA_LG1c_KUoqw7-65" vertex="1">
          <mxGeometry y="52" width="330" height="8" as="geometry" />
        </mxCell>
        <mxCell id="hpsonxkA_LG1c_KUoqw7-70" value="Product : SoftDeletableEntity (abstract)" style="swimlane;fontStyle=1;align=center;verticalAlign=top;childLayout=stackLayout;horizontal=1;startSize=26;horizontalStack=0;resizeParent=1;resizeParentMax=0;resizeLast=0;collapsible=1;marginBottom=0;whiteSpace=wrap;html=1;" parent="WIyWlLk6GJQsqaUBKTNV-1" vertex="1">
          <mxGeometry x="790" y="542" width="320" height="216" as="geometry" />
        </mxCell>
        <mxCell id="hpsonxkA_LG1c_KUoqw7-71" value="+ Id: Guid (key)" style="text;strokeColor=none;fillColor=none;align=left;verticalAlign=top;spacingLeft=4;spacingRight=4;overflow=hidden;rotatable=0;points=[[0,0.5],[1,0.5]];portConstraint=eastwest;whiteSpace=wrap;html=1;" parent="hpsonxkA_LG1c_KUoqw7-70" vertex="1">
          <mxGeometry y="26" width="320" height="26" as="geometry" />
        </mxCell>
        <mxCell id="hpsonxkA_LG1c_KUoqw7-72" value="+ Title: string (Required)" style="text;strokeColor=none;fillColor=none;align=left;verticalAlign=top;spacingLeft=4;spacingRight=4;overflow=hidden;rotatable=0;points=[[0,0.5],[1,0.5]];portConstraint=eastwest;whiteSpace=wrap;html=1;" parent="hpsonxkA_LG1c_KUoqw7-70" vertex="1">
          <mxGeometry y="52" width="320" height="26" as="geometry" />
        </mxCell>
        <mxCell id="hpsonxkA_LG1c_KUoqw7-73" value="+ Descripion: string&amp;nbsp;" style="text;strokeColor=none;fillColor=none;align=left;verticalAlign=top;spacingLeft=4;spacingRight=4;overflow=hidden;rotatable=0;points=[[0,0.5],[1,0.5]];portConstraint=eastwest;whiteSpace=wrap;html=1;" parent="hpsonxkA_LG1c_KUoqw7-70" vertex="1">
          <mxGeometry y="78" width="320" height="26" as="geometry" />
        </mxCell>
        <mxCell id="hpsonxkA_LG1c_KUoqw7-102" value="+ UpdatedAt: DateTime" style="text;strokeColor=none;fillColor=none;align=left;verticalAlign=top;spacingLeft=4;spacingRight=4;overflow=hidden;rotatable=0;points=[[0,0.5],[1,0.5]];portConstraint=eastwest;whiteSpace=wrap;html=1;" parent="hpsonxkA_LG1c_KUoqw7-70" vertex="1">
          <mxGeometry y="104" width="320" height="26" as="geometry" />
        </mxCell>
        <mxCell id="hpsonxkA_LG1c_KUoqw7-101" value="+ CreatedAt: DateTime" style="text;strokeColor=none;fillColor=none;align=left;verticalAlign=top;spacingLeft=4;spacingRight=4;overflow=hidden;rotatable=0;points=[[0,0.5],[1,0.5]];portConstraint=eastwest;whiteSpace=wrap;html=1;" parent="hpsonxkA_LG1c_KUoqw7-70" vertex="1">
          <mxGeometry y="130" width="320" height="26" as="geometry" />
        </mxCell>
        <mxCell id="hpsonxkA_LG1c_KUoqw7-76" value="+ Price: decimal" style="text;strokeColor=none;fillColor=none;align=left;verticalAlign=top;spacingLeft=4;spacingRight=4;overflow=hidden;rotatable=0;points=[[0,0.5],[1,0.5]];portConstraint=eastwest;whiteSpace=wrap;html=1;" parent="hpsonxkA_LG1c_KUoqw7-70" vertex="1">
          <mxGeometry y="156" width="320" height="26" as="geometry" />
        </mxCell>
        <mxCell id="hpsonxkA_LG1c_KUoqw7-103" value="+ IsActive: bool" style="text;strokeColor=none;fillColor=none;align=left;verticalAlign=top;spacingLeft=4;spacingRight=4;overflow=hidden;rotatable=0;points=[[0,0.5],[1,0.5]];portConstraint=eastwest;whiteSpace=wrap;html=1;" parent="hpsonxkA_LG1c_KUoqw7-70" vertex="1">
          <mxGeometry y="182" width="320" height="26" as="geometry" />
        </mxCell>
        <mxCell id="hpsonxkA_LG1c_KUoqw7-81" value="" style="line;strokeWidth=1;fillColor=none;align=left;verticalAlign=middle;spacingTop=-1;spacingLeft=3;spacingRight=3;rotatable=0;labelPosition=right;points=[];portConstraint=eastwest;strokeColor=inherit;" parent="hpsonxkA_LG1c_KUoqw7-70" vertex="1">
          <mxGeometry y="208" width="320" height="8" as="geometry" />
        </mxCell>
        <mxCell id="hpsonxkA_LG1c_KUoqw7-87" value="" style="html=1;verticalAlign=bottom;endArrow=block;curved=0;rounded=0;" parent="WIyWlLk6GJQsqaUBKTNV-1" source="hpsonxkA_LG1c_KUoqw7-20" target="hpsonxkA_LG1c_KUoqw7-35" edge="1">
          <mxGeometry width="80" relative="1" as="geometry">
            <mxPoint x="1150" y="170" as="sourcePoint" />
            <mxPoint x="1230" y="170" as="targetPoint" />
          </mxGeometry>
        </mxCell>
        <mxCell id="hpsonxkA_LG1c_KUoqw7-88" value="" style="html=1;verticalAlign=bottom;endArrow=block;curved=0;rounded=0;" parent="WIyWlLk6GJQsqaUBKTNV-1" source="hpsonxkA_LG1c_KUoqw7-50" target="hpsonxkA_LG1c_KUoqw7-35" edge="1">
          <mxGeometry width="80" relative="1" as="geometry">
            <mxPoint x="1130" y="192" as="sourcePoint" />
            <mxPoint x="1290" y="175" as="targetPoint" />
          </mxGeometry>
        </mxCell>
        <mxCell id="hpsonxkA_LG1c_KUoqw7-89" value="" style="html=1;verticalAlign=bottom;endArrow=block;curved=0;rounded=0;" parent="WIyWlLk6GJQsqaUBKTNV-1" source="hpsonxkA_LG1c_KUoqw7-20" target="hpsonxkA_LG1c_KUoqw7-70" edge="1">
          <mxGeometry width="80" relative="1" as="geometry">
            <mxPoint x="1140" y="202" as="sourcePoint" />
            <mxPoint x="1300" y="185" as="targetPoint" />
          </mxGeometry>
        </mxCell>
        <mxCell id="hpsonxkA_LG1c_KUoqw7-91" value="GameAddon : Product" style="swimlane;fontStyle=1;align=center;verticalAlign=top;childLayout=stackLayout;horizontal=1;startSize=26;horizontalStack=0;resizeParent=1;resizeParentMax=0;resizeLast=0;collapsible=1;marginBottom=0;whiteSpace=wrap;html=1;" parent="WIyWlLk6GJQsqaUBKTNV-1" vertex="1">
          <mxGeometry x="330" y="30" width="350" height="242" as="geometry" />
        </mxCell>
        <mxCell id="hpsonxkA_LG1c_KUoqw7-92" value="+ GameId: Guid" style="text;strokeColor=none;fillColor=none;align=left;verticalAlign=top;spacingLeft=4;spacingRight=4;overflow=hidden;rotatable=0;points=[[0,0.5],[1,0.5]];portConstraint=eastwest;whiteSpace=wrap;html=1;" parent="hpsonxkA_LG1c_KUoqw7-91" vertex="1">
          <mxGeometry y="26" width="350" height="26" as="geometry" />
        </mxCell>
        <mxCell id="hpsonxkA_LG1c_KUoqw7-98" value="+ StorageUrl: string" style="text;strokeColor=none;fillColor=none;align=left;verticalAlign=top;spacingLeft=4;spacingRight=4;overflow=hidden;rotatable=0;points=[[0,0.5],[1,0.5]];portConstraint=eastwest;whiteSpace=wrap;html=1;" parent="hpsonxkA_LG1c_KUoqw7-91" vertex="1">
          <mxGeometry y="52" width="350" height="26" as="geometry" />
        </mxCell>
        <mxCell id="hpsonxkA_LG1c_KUoqw7-94" value="" style="line;strokeWidth=1;fillColor=none;align=left;verticalAlign=middle;spacingTop=-1;spacingLeft=3;spacingRight=3;rotatable=0;labelPosition=right;points=[];portConstraint=eastwest;strokeColor=inherit;" parent="hpsonxkA_LG1c_KUoqw7-91" vertex="1">
          <mxGeometry y="78" width="350" height="8" as="geometry" />
        </mxCell>
        <mxCell id="hpsonxkA_LG1c_KUoqw7-95" value="+ Game: Game (virtual)" style="text;strokeColor=none;fillColor=none;align=left;verticalAlign=top;spacingLeft=4;spacingRight=4;overflow=hidden;rotatable=0;points=[[0,0.5],[1,0.5]];portConstraint=eastwest;whiteSpace=wrap;html=1;" parent="hpsonxkA_LG1c_KUoqw7-91" vertex="1">
          <mxGeometry y="86" width="350" height="26" as="geometry" />
        </mxCell>
        <mxCell id="hpsonxkA_LG1c_KUoqw7-143" value="+ ProductDiscounts: ICollection&amp;lt;ProductDiscount&amp;gt; (virtual)" style="text;strokeColor=none;fillColor=none;align=left;verticalAlign=top;spacingLeft=4;spacingRight=4;overflow=hidden;rotatable=0;points=[[0,0.5],[1,0.5]];portConstraint=eastwest;whiteSpace=wrap;html=1;" parent="hpsonxkA_LG1c_KUoqw7-91" vertex="1">
          <mxGeometry y="112" width="350" height="26" as="geometry" />
        </mxCell>
        <mxCell id="hpsonxkA_LG1c_KUoqw7-276" value="+ OrderItems: ICollection&amp;lt;OrderItem&amp;gt; (virtual)" style="text;strokeColor=none;fillColor=none;align=left;verticalAlign=top;spacingLeft=4;spacingRight=4;overflow=hidden;rotatable=0;points=[[0,0.5],[1,0.5]];portConstraint=eastwest;whiteSpace=wrap;html=1;" parent="hpsonxkA_LG1c_KUoqw7-91" vertex="1">
          <mxGeometry y="138" width="350" height="26" as="geometry" />
        </mxCell>
        <mxCell id="xZ0Wn-mFjBRzZuzrVX0f-7" value="+ CartItems: ICollection&amp;lt;CartItem&amp;gt; (virtual)" style="text;strokeColor=none;fillColor=none;align=left;verticalAlign=top;spacingLeft=4;spacingRight=4;overflow=hidden;rotatable=0;points=[[0,0.5],[1,0.5]];portConstraint=eastwest;whiteSpace=wrap;html=1;" parent="hpsonxkA_LG1c_KUoqw7-91" vertex="1">
          <mxGeometry y="164" width="350" height="26" as="geometry" />
        </mxCell>
        <mxCell id="hpsonxkA_LG1c_KUoqw7-280" value="+&amp;nbsp;&lt;span style=&quot;text-align: center;&quot;&gt;UserLibraryAddons&lt;/span&gt;: ICollection&amp;lt;&lt;span style=&quot;text-align: center;&quot;&gt;UserLibraryAddon&lt;/span&gt;&amp;gt; (virtual)" style="text;strokeColor=none;fillColor=none;align=left;verticalAlign=top;spacingLeft=4;spacingRight=4;overflow=hidden;rotatable=0;points=[[0,0.5],[1,0.5]];portConstraint=eastwest;whiteSpace=wrap;html=1;" parent="hpsonxkA_LG1c_KUoqw7-91" vertex="1">
          <mxGeometry y="190" width="350" height="26" as="geometry" />
        </mxCell>
        <mxCell id="xZ0Wn-mFjBRzZuzrVX0f-5" value="+ Discounts: ICollection&amp;lt;Discount&amp;gt; (virtual)" style="text;strokeColor=none;fillColor=none;align=left;verticalAlign=top;spacingLeft=4;spacingRight=4;overflow=hidden;rotatable=0;points=[[0,0.5],[1,0.5]];portConstraint=eastwest;whiteSpace=wrap;html=1;" parent="hpsonxkA_LG1c_KUoqw7-91" vertex="1">
          <mxGeometry y="216" width="350" height="26" as="geometry" />
        </mxCell>
        <mxCell id="hpsonxkA_LG1c_KUoqw7-96" value="" style="html=1;verticalAlign=bottom;endArrow=block;curved=0;rounded=0;" parent="WIyWlLk6GJQsqaUBKTNV-1" source="hpsonxkA_LG1c_KUoqw7-91" target="hpsonxkA_LG1c_KUoqw7-70" edge="1">
          <mxGeometry width="80" relative="1" as="geometry">
            <mxPoint x="1130" y="192" as="sourcePoint" />
            <mxPoint x="1290" y="175" as="targetPoint" />
          </mxGeometry>
        </mxCell>
        <mxCell id="hpsonxkA_LG1c_KUoqw7-104" value="Bundle" style="swimlane;fontStyle=1;align=center;verticalAlign=top;childLayout=stackLayout;horizontal=1;startSize=26;horizontalStack=0;resizeParent=1;resizeParentMax=0;resizeLast=0;collapsible=1;marginBottom=0;whiteSpace=wrap;html=1;" parent="WIyWlLk6GJQsqaUBKTNV-1" vertex="1">
          <mxGeometry x="280" y="313" width="330" height="164" as="geometry" />
        </mxCell>
        <mxCell id="hpsonxkA_LG1c_KUoqw7-107" value="" style="line;strokeWidth=1;fillColor=none;align=left;verticalAlign=middle;spacingTop=-1;spacingLeft=3;spacingRight=3;rotatable=0;labelPosition=right;points=[];portConstraint=eastwest;strokeColor=inherit;" parent="hpsonxkA_LG1c_KUoqw7-104" vertex="1">
          <mxGeometry y="26" width="330" height="8" as="geometry" />
        </mxCell>
        <mxCell id="rTpIlooQs98uF8OyqGEr-0" value="+ Id: Guid (key)" style="text;strokeColor=none;fillColor=none;align=left;verticalAlign=top;spacingLeft=4;spacingRight=4;overflow=hidden;rotatable=0;points=[[0,0.5],[1,0.5]];portConstraint=eastwest;whiteSpace=wrap;html=1;" parent="hpsonxkA_LG1c_KUoqw7-104" vertex="1">
          <mxGeometry y="34" width="330" height="26" as="geometry" />
        </mxCell>
        <mxCell id="rTpIlooQs98uF8OyqGEr-1" value="+ Title: string (Required)" style="text;strokeColor=none;fillColor=none;align=left;verticalAlign=top;spacingLeft=4;spacingRight=4;overflow=hidden;rotatable=0;points=[[0,0.5],[1,0.5]];portConstraint=eastwest;whiteSpace=wrap;html=1;" parent="hpsonxkA_LG1c_KUoqw7-104" vertex="1">
          <mxGeometry y="60" width="330" height="26" as="geometry" />
        </mxCell>
        <mxCell id="rTpIlooQs98uF8OyqGEr-2" value="+ Descripion: string&amp;nbsp;" style="text;strokeColor=none;fillColor=none;align=left;verticalAlign=top;spacingLeft=4;spacingRight=4;overflow=hidden;rotatable=0;points=[[0,0.5],[1,0.5]];portConstraint=eastwest;whiteSpace=wrap;html=1;" parent="hpsonxkA_LG1c_KUoqw7-104" vertex="1">
          <mxGeometry y="86" width="330" height="26" as="geometry" />
        </mxCell>
        <mxCell id="rTpIlooQs98uF8OyqGEr-3" value="+ TotalPrice: decimal" style="text;strokeColor=none;fillColor=none;align=left;verticalAlign=top;spacingLeft=4;spacingRight=4;overflow=hidden;rotatable=0;points=[[0,0.5],[1,0.5]];portConstraint=eastwest;whiteSpace=wrap;html=1;" parent="hpsonxkA_LG1c_KUoqw7-104" vertex="1">
          <mxGeometry y="112" width="330" height="26" as="geometry" />
        </mxCell>
        <mxCell id="hpsonxkA_LG1c_KUoqw7-109" value="+ GameCategories: ICollection&amp;lt;BundleProduct&amp;gt; (virtual)" style="text;strokeColor=none;fillColor=none;align=left;verticalAlign=top;spacingLeft=4;spacingRight=4;overflow=hidden;rotatable=0;points=[[0,0.5],[1,0.5]];portConstraint=eastwest;whiteSpace=wrap;html=1;" parent="hpsonxkA_LG1c_KUoqw7-104" vertex="1">
          <mxGeometry y="138" width="330" height="26" as="geometry" />
        </mxCell>
        <mxCell id="hpsonxkA_LG1c_KUoqw7-110" value="BundleProduct" style="swimlane;fontStyle=1;align=center;verticalAlign=top;childLayout=stackLayout;horizontal=1;startSize=26;horizontalStack=0;resizeParent=1;resizeParentMax=0;resizeLast=0;collapsible=1;marginBottom=0;whiteSpace=wrap;html=1;" parent="WIyWlLk6GJQsqaUBKTNV-1" vertex="1">
          <mxGeometry x="280" y="590" width="330" height="164" as="geometry" />
        </mxCell>
        <mxCell id="rTpIlooQs98uF8OyqGEr-4" value="+ Id: Guid (key)" style="text;strokeColor=none;fillColor=none;align=left;verticalAlign=top;spacingLeft=4;spacingRight=4;overflow=hidden;rotatable=0;points=[[0,0.5],[1,0.5]];portConstraint=eastwest;whiteSpace=wrap;html=1;" parent="hpsonxkA_LG1c_KUoqw7-110" vertex="1">
          <mxGeometry y="26" width="330" height="26" as="geometry" />
        </mxCell>
        <mxCell id="hpsonxkA_LG1c_KUoqw7-111" value="+ BundleId: Guid" style="text;strokeColor=none;fillColor=none;align=left;verticalAlign=top;spacingLeft=4;spacingRight=4;overflow=hidden;rotatable=0;points=[[0,0.5],[1,0.5]];portConstraint=eastwest;whiteSpace=wrap;html=1;" parent="hpsonxkA_LG1c_KUoqw7-110" vertex="1">
          <mxGeometry y="52" width="330" height="26" as="geometry" />
        </mxCell>
        <mxCell id="hpsonxkA_LG1c_KUoqw7-112" value="+ ProductId: Guid" style="text;strokeColor=none;fillColor=none;align=left;verticalAlign=top;spacingLeft=4;spacingRight=4;overflow=hidden;rotatable=0;points=[[0,0.5],[1,0.5]];portConstraint=eastwest;whiteSpace=wrap;html=1;" parent="hpsonxkA_LG1c_KUoqw7-110" vertex="1">
          <mxGeometry y="78" width="330" height="26" as="geometry" />
        </mxCell>
        <mxCell id="hpsonxkA_LG1c_KUoqw7-113" value="" style="line;strokeWidth=1;fillColor=none;align=left;verticalAlign=middle;spacingTop=-1;spacingLeft=3;spacingRight=3;rotatable=0;labelPosition=right;points=[];portConstraint=eastwest;strokeColor=inherit;" parent="hpsonxkA_LG1c_KUoqw7-110" vertex="1">
          <mxGeometry y="104" width="330" height="8" as="geometry" />
        </mxCell>
        <mxCell id="hpsonxkA_LG1c_KUoqw7-114" value="+ Bundle: Bundle (virtual)" style="text;strokeColor=none;fillColor=none;align=left;verticalAlign=top;spacingLeft=4;spacingRight=4;overflow=hidden;rotatable=0;points=[[0,0.5],[1,0.5]];portConstraint=eastwest;whiteSpace=wrap;html=1;" parent="hpsonxkA_LG1c_KUoqw7-110" vertex="1">
          <mxGeometry y="112" width="330" height="26" as="geometry" />
        </mxCell>
        <mxCell id="hpsonxkA_LG1c_KUoqw7-116" value="+ Product: Product (virtual)" style="text;strokeColor=none;fillColor=none;align=left;verticalAlign=top;spacingLeft=4;spacingRight=4;overflow=hidden;rotatable=0;points=[[0,0.5],[1,0.5]];portConstraint=eastwest;whiteSpace=wrap;html=1;" parent="hpsonxkA_LG1c_KUoqw7-110" vertex="1">
          <mxGeometry y="138" width="330" height="26" as="geometry" />
        </mxCell>
        <mxCell id="hpsonxkA_LG1c_KUoqw7-115" value="" style="html=1;verticalAlign=bottom;endArrow=block;curved=0;rounded=0;" parent="WIyWlLk6GJQsqaUBKTNV-1" source="hpsonxkA_LG1c_KUoqw7-104" target="hpsonxkA_LG1c_KUoqw7-70" edge="1">
          <mxGeometry width="80" relative="1" as="geometry">
            <mxPoint x="700" y="-82" as="sourcePoint" />
            <mxPoint x="810" y="-74" as="targetPoint" />
          </mxGeometry>
        </mxCell>
        <mxCell id="hpsonxkA_LG1c_KUoqw7-117" value="" style="html=1;verticalAlign=bottom;endArrow=block;curved=0;rounded=0;" parent="WIyWlLk6GJQsqaUBKTNV-1" source="hpsonxkA_LG1c_KUoqw7-104" target="hpsonxkA_LG1c_KUoqw7-110" edge="1">
          <mxGeometry width="80" relative="1" as="geometry">
            <mxPoint x="630" y="230" as="sourcePoint" />
            <mxPoint x="831" y="46" as="targetPoint" />
          </mxGeometry>
        </mxCell>
        <mxCell id="hpsonxkA_LG1c_KUoqw7-119" value="" style="html=1;verticalAlign=bottom;endArrow=block;curved=0;rounded=0;" parent="WIyWlLk6GJQsqaUBKTNV-1" source="hpsonxkA_LG1c_KUoqw7-70" target="hpsonxkA_LG1c_KUoqw7-110" edge="1">
          <mxGeometry width="80" relative="1" as="geometry">
            <mxPoint x="535" y="110" as="sourcePoint" />
            <mxPoint x="535" y="290" as="targetPoint" />
          </mxGeometry>
        </mxCell>
        <mxCell id="hpsonxkA_LG1c_KUoqw7-122" value="" style="html=1;verticalAlign=bottom;endArrow=block;curved=0;rounded=0;" parent="WIyWlLk6GJQsqaUBKTNV-1" source="hpsonxkA_LG1c_KUoqw7-56" target="hpsonxkA_LG1c_KUoqw7-248" edge="1">
          <mxGeometry width="80" relative="1" as="geometry">
            <mxPoint x="973" y="394" as="sourcePoint" />
            <mxPoint x="958" y="280" as="targetPoint" />
          </mxGeometry>
        </mxCell>
        <mxCell id="hpsonxkA_LG1c_KUoqw7-125" value="" style="html=1;verticalAlign=bottom;endArrow=block;curved=0;rounded=0;" parent="WIyWlLk6GJQsqaUBKTNV-1" source="hpsonxkA_LG1c_KUoqw7-91" target="hpsonxkA_LG1c_KUoqw7-20" edge="1">
          <mxGeometry width="80" relative="1" as="geometry">
            <mxPoint x="970" y="-46" as="sourcePoint" />
            <mxPoint x="970" y="102" as="targetPoint" />
          </mxGeometry>
        </mxCell>
        <mxCell id="hpsonxkA_LG1c_KUoqw7-126" value="Cart : SoftDeletableEntity" style="swimlane;fontStyle=1;align=center;verticalAlign=top;childLayout=stackLayout;horizontal=1;startSize=26;horizontalStack=0;resizeParent=1;resizeParentMax=0;resizeLast=0;collapsible=1;marginBottom=0;whiteSpace=wrap;html=1;" parent="WIyWlLk6GJQsqaUBKTNV-1" vertex="1">
          <mxGeometry x="45" y="1438" width="330" height="164" as="geometry" />
        </mxCell>
        <mxCell id="hpsonxkA_LG1c_KUoqw7-127" value="+ Id: Guid (key)" style="text;strokeColor=none;fillColor=none;align=left;verticalAlign=top;spacingLeft=4;spacingRight=4;overflow=hidden;rotatable=0;points=[[0,0.5],[1,0.5]];portConstraint=eastwest;whiteSpace=wrap;html=1;" parent="hpsonxkA_LG1c_KUoqw7-126" vertex="1">
          <mxGeometry y="26" width="330" height="26" as="geometry" />
        </mxCell>
        <mxCell id="hpsonxkA_LG1c_KUoqw7-128" value="+ UserId: Guid (foreighnkey)" style="text;strokeColor=none;fillColor=none;align=left;verticalAlign=top;spacingLeft=4;spacingRight=4;overflow=hidden;rotatable=0;points=[[0,0.5],[1,0.5]];portConstraint=eastwest;whiteSpace=wrap;html=1;" parent="hpsonxkA_LG1c_KUoqw7-126" vertex="1">
          <mxGeometry y="52" width="330" height="26" as="geometry" />
        </mxCell>
        <mxCell id="xZ0Wn-mFjBRzZuzrVX0f-3" value="+ TotalAmount: decimal" style="text;strokeColor=none;fillColor=none;align=left;verticalAlign=top;spacingLeft=4;spacingRight=4;overflow=hidden;rotatable=0;points=[[0,0.5],[1,0.5]];portConstraint=eastwest;whiteSpace=wrap;html=1;" parent="hpsonxkA_LG1c_KUoqw7-126" vertex="1">
          <mxGeometry y="78" width="330" height="26" as="geometry" />
        </mxCell>
        <mxCell id="hpsonxkA_LG1c_KUoqw7-129" value="" style="line;strokeWidth=1;fillColor=none;align=left;verticalAlign=middle;spacingTop=-1;spacingLeft=3;spacingRight=3;rotatable=0;labelPosition=right;points=[];portConstraint=eastwest;strokeColor=inherit;" parent="hpsonxkA_LG1c_KUoqw7-126" vertex="1">
          <mxGeometry y="104" width="330" height="8" as="geometry" />
        </mxCell>
        <mxCell id="hpsonxkA_LG1c_KUoqw7-133" value="+ User: User (virtual)" style="text;strokeColor=none;fillColor=none;align=left;verticalAlign=top;spacingLeft=4;spacingRight=4;overflow=hidden;rotatable=0;points=[[0,0.5],[1,0.5]];portConstraint=eastwest;whiteSpace=wrap;html=1;" parent="hpsonxkA_LG1c_KUoqw7-126" vertex="1">
          <mxGeometry y="112" width="330" height="26" as="geometry" />
        </mxCell>
        <mxCell id="hpsonxkA_LG1c_KUoqw7-130" value="+ CartItems: ICollection&amp;lt;CartItem&amp;gt; (virtual)" style="text;strokeColor=none;fillColor=none;align=left;verticalAlign=top;spacingLeft=4;spacingRight=4;overflow=hidden;rotatable=0;points=[[0,0.5],[1,0.5]];portConstraint=eastwest;whiteSpace=wrap;html=1;" parent="hpsonxkA_LG1c_KUoqw7-126" vertex="1">
          <mxGeometry y="138" width="330" height="26" as="geometry" />
        </mxCell>
        <mxCell id="hpsonxkA_LG1c_KUoqw7-135" value="" style="html=1;verticalAlign=bottom;endArrow=block;curved=0;rounded=0;" parent="WIyWlLk6GJQsqaUBKTNV-1" source="hpsonxkA_LG1c_KUoqw7-126" target="hpsonxkA_LG1c_KUoqw7-247" edge="1">
          <mxGeometry width="80" relative="1" as="geometry">
            <mxPoint x="1427" y="450" as="sourcePoint" />
            <mxPoint x="1460" y="250" as="targetPoint" />
          </mxGeometry>
        </mxCell>
        <mxCell id="hpsonxkA_LG1c_KUoqw7-136" value="Discont : SoftDeletableEntity&amp;nbsp;" style="swimlane;fontStyle=1;align=center;verticalAlign=top;childLayout=stackLayout;horizontal=1;startSize=26;horizontalStack=0;resizeParent=1;resizeParentMax=0;resizeLast=0;collapsible=1;marginBottom=0;whiteSpace=wrap;html=1;" parent="WIyWlLk6GJQsqaUBKTNV-1" vertex="1">
          <mxGeometry x="1435" y="1390" width="330" height="216" as="geometry" />
        </mxCell>
        <mxCell id="hpsonxkA_LG1c_KUoqw7-137" value="+ Id: Guid (key)" style="text;strokeColor=none;fillColor=none;align=left;verticalAlign=top;spacingLeft=4;spacingRight=4;overflow=hidden;rotatable=0;points=[[0,0.5],[1,0.5]];portConstraint=eastwest;whiteSpace=wrap;html=1;" parent="hpsonxkA_LG1c_KUoqw7-136" vertex="1">
          <mxGeometry y="26" width="330" height="26" as="geometry" />
        </mxCell>
        <mxCell id="hpsonxkA_LG1c_KUoqw7-145" value="+ Name: string" style="text;strokeColor=none;fillColor=none;align=left;verticalAlign=top;spacingLeft=4;spacingRight=4;overflow=hidden;rotatable=0;points=[[0,0.5],[1,0.5]];portConstraint=eastwest;whiteSpace=wrap;html=1;" parent="hpsonxkA_LG1c_KUoqw7-136" vertex="1">
          <mxGeometry y="52" width="330" height="26" as="geometry" />
        </mxCell>
        <mxCell id="hpsonxkA_LG1c_KUoqw7-146" value="+ DiscountType: DiscountType" style="text;strokeColor=none;fillColor=none;align=left;verticalAlign=top;spacingLeft=4;spacingRight=4;overflow=hidden;rotatable=0;points=[[0,0.5],[1,0.5]];portConstraint=eastwest;whiteSpace=wrap;html=1;" parent="hpsonxkA_LG1c_KUoqw7-136" vertex="1">
          <mxGeometry y="78" width="330" height="26" as="geometry" />
        </mxCell>
        <mxCell id="hpsonxkA_LG1c_KUoqw7-147" value="+ DiscountValue: decimal" style="text;strokeColor=none;fillColor=none;align=left;verticalAlign=top;spacingLeft=4;spacingRight=4;overflow=hidden;rotatable=0;points=[[0,0.5],[1,0.5]];portConstraint=eastwest;whiteSpace=wrap;html=1;" parent="hpsonxkA_LG1c_KUoqw7-136" vertex="1">
          <mxGeometry y="104" width="330" height="26" as="geometry" />
        </mxCell>
        <mxCell id="hpsonxkA_LG1c_KUoqw7-138" value="+ StartDate: DateTime" style="text;strokeColor=none;fillColor=none;align=left;verticalAlign=top;spacingLeft=4;spacingRight=4;overflow=hidden;rotatable=0;points=[[0,0.5],[1,0.5]];portConstraint=eastwest;whiteSpace=wrap;html=1;" parent="hpsonxkA_LG1c_KUoqw7-136" vertex="1">
          <mxGeometry y="130" width="330" height="26" as="geometry" />
        </mxCell>
        <mxCell id="hpsonxkA_LG1c_KUoqw7-140" value="+ EndDate: DateTime" style="text;strokeColor=none;fillColor=none;align=left;verticalAlign=top;spacingLeft=4;spacingRight=4;overflow=hidden;rotatable=0;points=[[0,0.5],[1,0.5]];portConstraint=eastwest;whiteSpace=wrap;html=1;" parent="hpsonxkA_LG1c_KUoqw7-136" vertex="1">
          <mxGeometry y="156" width="330" height="26" as="geometry" />
        </mxCell>
        <mxCell id="hpsonxkA_LG1c_KUoqw7-139" value="" style="line;strokeWidth=1;fillColor=none;align=left;verticalAlign=middle;spacingTop=-1;spacingLeft=3;spacingRight=3;rotatable=0;labelPosition=right;points=[];portConstraint=eastwest;strokeColor=inherit;" parent="hpsonxkA_LG1c_KUoqw7-136" vertex="1">
          <mxGeometry y="182" width="330" height="8" as="geometry" />
        </mxCell>
        <mxCell id="hpsonxkA_LG1c_KUoqw7-141" value="+ ProductDiscounts: ICollection&amp;lt;ProductDiscount&amp;gt; (virtual)" style="text;strokeColor=none;fillColor=none;align=left;verticalAlign=top;spacingLeft=4;spacingRight=4;overflow=hidden;rotatable=0;points=[[0,0.5],[1,0.5]];portConstraint=eastwest;whiteSpace=wrap;html=1;" parent="hpsonxkA_LG1c_KUoqw7-136" vertex="1">
          <mxGeometry y="190" width="330" height="26" as="geometry" />
        </mxCell>
        <mxCell id="hpsonxkA_LG1c_KUoqw7-158" value="ProductDiscount" style="swimlane;fontStyle=1;align=center;verticalAlign=top;childLayout=stackLayout;horizontal=1;startSize=26;horizontalStack=0;resizeParent=1;resizeParentMax=0;resizeLast=0;collapsible=1;marginBottom=0;whiteSpace=wrap;html=1;" parent="WIyWlLk6GJQsqaUBKTNV-1" vertex="1">
          <mxGeometry x="1450" y="1100" width="300" height="164" as="geometry" />
        </mxCell>
        <mxCell id="rTpIlooQs98uF8OyqGEr-9" value="+ Id: Guid (key)" style="text;strokeColor=none;fillColor=none;align=left;verticalAlign=top;spacingLeft=4;spacingRight=4;overflow=hidden;rotatable=0;points=[[0,0.5],[1,0.5]];portConstraint=eastwest;whiteSpace=wrap;html=1;" parent="hpsonxkA_LG1c_KUoqw7-158" vertex="1">
          <mxGeometry y="26" width="300" height="26" as="geometry" />
        </mxCell>
        <mxCell id="hpsonxkA_LG1c_KUoqw7-159" value="+ ProductId: Guid (foreighnkey) (key)" style="text;strokeColor=none;fillColor=none;align=left;verticalAlign=top;spacingLeft=4;spacingRight=4;overflow=hidden;rotatable=0;points=[[0,0.5],[1,0.5]];portConstraint=eastwest;whiteSpace=wrap;html=1;" parent="hpsonxkA_LG1c_KUoqw7-158" vertex="1">
          <mxGeometry y="52" width="300" height="26" as="geometry" />
        </mxCell>
        <mxCell id="hpsonxkA_LG1c_KUoqw7-160" value="+ DiscountId: Guid (foreighnkey) (key)" style="text;strokeColor=none;fillColor=none;align=left;verticalAlign=top;spacingLeft=4;spacingRight=4;overflow=hidden;rotatable=0;points=[[0,0.5],[1,0.5]];portConstraint=eastwest;whiteSpace=wrap;html=1;" parent="hpsonxkA_LG1c_KUoqw7-158" vertex="1">
          <mxGeometry y="78" width="300" height="26" as="geometry" />
        </mxCell>
        <mxCell id="hpsonxkA_LG1c_KUoqw7-161" value="" style="line;strokeWidth=1;fillColor=none;align=left;verticalAlign=middle;spacingTop=-1;spacingLeft=3;spacingRight=3;rotatable=0;labelPosition=right;points=[];portConstraint=eastwest;strokeColor=inherit;" parent="hpsonxkA_LG1c_KUoqw7-158" vertex="1">
          <mxGeometry y="104" width="300" height="8" as="geometry" />
        </mxCell>
        <mxCell id="hpsonxkA_LG1c_KUoqw7-162" value="+ Product: Product (virtual)" style="text;strokeColor=none;fillColor=none;align=left;verticalAlign=top;spacingLeft=4;spacingRight=4;overflow=hidden;rotatable=0;points=[[0,0.5],[1,0.5]];portConstraint=eastwest;whiteSpace=wrap;html=1;" parent="hpsonxkA_LG1c_KUoqw7-158" vertex="1">
          <mxGeometry y="112" width="300" height="26" as="geometry" />
        </mxCell>
        <mxCell id="hpsonxkA_LG1c_KUoqw7-163" value="+ Discount: Discount (virtual)" style="text;strokeColor=none;fillColor=none;align=left;verticalAlign=top;spacingLeft=4;spacingRight=4;overflow=hidden;rotatable=0;points=[[0,0.5],[1,0.5]];portConstraint=eastwest;whiteSpace=wrap;html=1;" parent="hpsonxkA_LG1c_KUoqw7-158" vertex="1">
          <mxGeometry y="138" width="300" height="26" as="geometry" />
        </mxCell>
        <mxCell id="hpsonxkA_LG1c_KUoqw7-164" value="" style="html=1;verticalAlign=bottom;endArrow=block;curved=0;rounded=0;" parent="WIyWlLk6GJQsqaUBKTNV-1" source="hpsonxkA_LG1c_KUoqw7-158" target="hpsonxkA_LG1c_KUoqw7-136" edge="1">
          <mxGeometry width="80" relative="1" as="geometry">
            <mxPoint x="-15" y="30" as="sourcePoint" />
            <mxPoint x="-15" y="128" as="targetPoint" />
          </mxGeometry>
        </mxCell>
        <mxCell id="hpsonxkA_LG1c_KUoqw7-166" value="Tag" style="swimlane;fontStyle=1;align=center;verticalAlign=top;childLayout=stackLayout;horizontal=1;startSize=26;horizontalStack=0;resizeParent=1;resizeParentMax=0;resizeLast=0;collapsible=1;marginBottom=0;whiteSpace=wrap;html=1;" parent="WIyWlLk6GJQsqaUBKTNV-1" vertex="1">
          <mxGeometry x="290" y="-340" width="330" height="112" as="geometry" />
        </mxCell>
        <mxCell id="hpsonxkA_LG1c_KUoqw7-167" value="+ Id: Guid" style="text;strokeColor=none;fillColor=none;align=left;verticalAlign=top;spacingLeft=4;spacingRight=4;overflow=hidden;rotatable=0;points=[[0,0.5],[1,0.5]];portConstraint=eastwest;whiteSpace=wrap;html=1;" parent="hpsonxkA_LG1c_KUoqw7-166" vertex="1">
          <mxGeometry y="26" width="330" height="26" as="geometry" />
        </mxCell>
        <mxCell id="hpsonxkA_LG1c_KUoqw7-173" value="+ Title: string" style="text;strokeColor=none;fillColor=none;align=left;verticalAlign=top;spacingLeft=4;spacingRight=4;overflow=hidden;rotatable=0;points=[[0,0.5],[1,0.5]];portConstraint=eastwest;whiteSpace=wrap;html=1;" parent="hpsonxkA_LG1c_KUoqw7-166" vertex="1">
          <mxGeometry y="52" width="330" height="26" as="geometry" />
        </mxCell>
        <mxCell id="hpsonxkA_LG1c_KUoqw7-169" value="" style="line;strokeWidth=1;fillColor=none;align=left;verticalAlign=middle;spacingTop=-1;spacingLeft=3;spacingRight=3;rotatable=0;labelPosition=right;points=[];portConstraint=eastwest;strokeColor=inherit;" parent="hpsonxkA_LG1c_KUoqw7-166" vertex="1">
          <mxGeometry y="78" width="330" height="8" as="geometry" />
        </mxCell>
        <mxCell id="hpsonxkA_LG1c_KUoqw7-170" value="+ GameTags: ICollection&amp;lt;GameTag&amp;gt; (virtual)" style="text;strokeColor=none;fillColor=none;align=left;verticalAlign=top;spacingLeft=4;spacingRight=4;overflow=hidden;rotatable=0;points=[[0,0.5],[1,0.5]];portConstraint=eastwest;whiteSpace=wrap;html=1;" parent="hpsonxkA_LG1c_KUoqw7-166" vertex="1">
          <mxGeometry y="86" width="330" height="26" as="geometry" />
        </mxCell>
        <mxCell id="hpsonxkA_LG1c_KUoqw7-175" value="" style="html=1;verticalAlign=bottom;endArrow=block;curved=0;rounded=0;" parent="WIyWlLk6GJQsqaUBKTNV-1" source="hpsonxkA_LG1c_KUoqw7-126" target="hpsonxkA_LG1c_KUoqw7-56" edge="1">
          <mxGeometry width="80" relative="1" as="geometry">
            <mxPoint x="915" y="440" as="sourcePoint" />
            <mxPoint x="692" y="328" as="targetPoint" />
          </mxGeometry>
        </mxCell>
        <mxCell id="hpsonxkA_LG1c_KUoqw7-181" value="&lt;font style=&quot;font-size: 36px;&quot;&gt;Schema : Games&lt;/font&gt;" style="text;html=1;align=center;verticalAlign=middle;whiteSpace=wrap;rounded=0;" parent="WIyWlLk6GJQsqaUBKTNV-1" vertex="1">
          <mxGeometry x="755" y="-360" width="390" height="60" as="geometry" />
        </mxCell>
        <mxCell id="hpsonxkA_LG1c_KUoqw7-184" value="&lt;font style=&quot;font-size: 36px;&quot;&gt;Schema : Store&lt;/font&gt;" style="text;html=1;align=center;verticalAlign=middle;whiteSpace=wrap;rounded=0;" parent="WIyWlLk6GJQsqaUBKTNV-1" vertex="1">
          <mxGeometry x="460" y="1040" width="390" height="60" as="geometry" />
        </mxCell>
        <mxCell id="hpsonxkA_LG1c_KUoqw7-185" value="Order : SoftDeletableEntity" style="swimlane;fontStyle=1;align=center;verticalAlign=top;childLayout=stackLayout;horizontal=1;startSize=26;horizontalStack=0;resizeParent=1;resizeParentMax=0;resizeLast=0;collapsible=1;marginBottom=0;whiteSpace=wrap;html=1;" parent="WIyWlLk6GJQsqaUBKTNV-1" vertex="1">
          <mxGeometry x="960" y="1390" width="330" height="216" as="geometry" />
        </mxCell>
        <mxCell id="hpsonxkA_LG1c_KUoqw7-186" value="+ Id: Guid (key)" style="text;strokeColor=none;fillColor=none;align=left;verticalAlign=top;spacingLeft=4;spacingRight=4;overflow=hidden;rotatable=0;points=[[0,0.5],[1,0.5]];portConstraint=eastwest;whiteSpace=wrap;html=1;" parent="hpsonxkA_LG1c_KUoqw7-185" vertex="1">
          <mxGeometry y="26" width="330" height="26" as="geometry" />
        </mxCell>
        <mxCell id="hpsonxkA_LG1c_KUoqw7-187" value="+ UserId: Guid (foreighnkey)" style="text;strokeColor=none;fillColor=none;align=left;verticalAlign=top;spacingLeft=4;spacingRight=4;overflow=hidden;rotatable=0;points=[[0,0.5],[1,0.5]];portConstraint=eastwest;whiteSpace=wrap;html=1;" parent="hpsonxkA_LG1c_KUoqw7-185" vertex="1">
          <mxGeometry y="52" width="330" height="26" as="geometry" />
        </mxCell>
        <mxCell id="hpsonxkA_LG1c_KUoqw7-191" value="+ OrderDate: DateTime" style="text;strokeColor=none;fillColor=none;align=left;verticalAlign=top;spacingLeft=4;spacingRight=4;overflow=hidden;rotatable=0;points=[[0,0.5],[1,0.5]];portConstraint=eastwest;whiteSpace=wrap;html=1;" parent="hpsonxkA_LG1c_KUoqw7-185" vertex="1">
          <mxGeometry y="78" width="330" height="26" as="geometry" />
        </mxCell>
        <mxCell id="hpsonxkA_LG1c_KUoqw7-193" value="+ OrderPaymentStatus: OrderPaymentStatus" style="text;strokeColor=none;fillColor=none;align=left;verticalAlign=top;spacingLeft=4;spacingRight=4;overflow=hidden;rotatable=0;points=[[0,0.5],[1,0.5]];portConstraint=eastwest;whiteSpace=wrap;html=1;" parent="hpsonxkA_LG1c_KUoqw7-185" vertex="1">
          <mxGeometry y="104" width="330" height="26" as="geometry" />
        </mxCell>
        <mxCell id="hpsonxkA_LG1c_KUoqw7-192" value="+ TotalAmount: decimal" style="text;strokeColor=none;fillColor=none;align=left;verticalAlign=top;spacingLeft=4;spacingRight=4;overflow=hidden;rotatable=0;points=[[0,0.5],[1,0.5]];portConstraint=eastwest;whiteSpace=wrap;html=1;" parent="hpsonxkA_LG1c_KUoqw7-185" vertex="1">
          <mxGeometry y="130" width="330" height="26" as="geometry" />
        </mxCell>
        <mxCell id="hpsonxkA_LG1c_KUoqw7-188" value="" style="line;strokeWidth=1;fillColor=none;align=left;verticalAlign=middle;spacingTop=-1;spacingLeft=3;spacingRight=3;rotatable=0;labelPosition=right;points=[];portConstraint=eastwest;strokeColor=inherit;" parent="hpsonxkA_LG1c_KUoqw7-185" vertex="1">
          <mxGeometry y="156" width="330" height="8" as="geometry" />
        </mxCell>
        <mxCell id="hpsonxkA_LG1c_KUoqw7-189" value="+ User: User (virtual)" style="text;strokeColor=none;fillColor=none;align=left;verticalAlign=top;spacingLeft=4;spacingRight=4;overflow=hidden;rotatable=0;points=[[0,0.5],[1,0.5]];portConstraint=eastwest;whiteSpace=wrap;html=1;" parent="hpsonxkA_LG1c_KUoqw7-185" vertex="1">
          <mxGeometry y="164" width="330" height="26" as="geometry" />
        </mxCell>
        <mxCell id="hpsonxkA_LG1c_KUoqw7-190" value="+ OrderItems: ICollection&amp;lt;OrderItem&amp;gt; (virtual)" style="text;strokeColor=none;fillColor=none;align=left;verticalAlign=top;spacingLeft=4;spacingRight=4;overflow=hidden;rotatable=0;points=[[0,0.5],[1,0.5]];portConstraint=eastwest;whiteSpace=wrap;html=1;" parent="hpsonxkA_LG1c_KUoqw7-185" vertex="1">
          <mxGeometry y="190" width="330" height="26" as="geometry" />
        </mxCell>
        <mxCell id="hpsonxkA_LG1c_KUoqw7-194" value="" style="html=1;verticalAlign=bottom;endArrow=block;curved=0;rounded=0;entryX=1;entryY=0.5;entryDx=0;entryDy=0;" parent="WIyWlLk6GJQsqaUBKTNV-1" source="hpsonxkA_LG1c_KUoqw7-185" target="hpsonxkA_LG1c_KUoqw7-247" edge="1">
          <mxGeometry width="80" relative="1" as="geometry">
            <mxPoint x="1080" y="1056" as="sourcePoint" />
            <mxPoint x="1840" y="1086" as="targetPoint" />
          </mxGeometry>
        </mxCell>
        <mxCell id="hpsonxkA_LG1c_KUoqw7-195" value="OrderItem : SoftDeletableEntity&lt;span style=&quot;color: rgba(0, 0, 0, 0); font-family: monospace; font-size: 0px; font-weight: 400; text-align: start; text-wrap: nowrap;&quot;&gt;%3CmxGraphModel%3E%3Croot%3E%3CmxCell%20id%3D%220%22%2F%3E%3CmxCell%20id%3D%221%22%20parent%3D%220%22%2F%3E%3CmxCell%20id%3D%222%22%20value%3D%22%22%20style%3D%22html%3D1%3BverticalAlign%3Dbottom%3BendArrow%3Dblock%3Bcurved%3D0%3Brounded%3D0%3B%22%20edge%3D%221%22%20parent%3D%221%22%3E%3CmxGeometry%20width%3D%2280%22%20relative%3D%221%22%20as%3D%22geometry%22%3E%3CmxPoint%20x%3D%221030%22%20y%3D%22630%22%20as%3D%22sourcePoint%22%2F%3E%3CmxPoint%20x%3D%221030%22%20y%3D%22568%22%20as%3D%22targetPoint%22%2F%3E%3C%2FmxGeometry%3E%3C%2FmxCell%3E%3C%2Froot%3E%3C%2FmxGraphModel%3E&lt;/span&gt;&lt;span style=&quot;color: rgba(0, 0, 0, 0); font-family: monospace; font-size: 0px; font-weight: 400; text-align: start; text-wrap: nowrap;&quot;&gt;%3CmxGraphModel%3E%3Croot%3E%3CmxCell%20id%3D%220%22%2F%3E%3CmxCell%20id%3D%221%22%20parent%3D%220%22%2F%3E%3CmxCell%20id%3D%222%22%20value%3D%22%22%20style%3D%22html%3D1%3BverticalAlign%3Dbottom%3BendArrow%3Dblock%3Bcurved%3D0%3Brounded%3D0%3B%22%20edge%3D%221%22%20parent%3D%221%22%3E%3CmxGeometry%20width%3D%2280%22%20relative%3D%221%22%20as%3D%22geometry%22%3E%3CmxPoint%20x%3D%221030%22%20y%3D%22630%22%20as%3D%22sourcePoint%22%2F%3E%3CmxPoint%20x%3D%221030%22%20y%3D%22568%22%20as%3D%22targetPoint%22%2F%3E%3C%2FmxGeometry%3E%3C%2FmxCell%3E%3C%2Froot%3E%3C%2FmxGraphModel%3E&lt;/span&gt;" style="swimlane;fontStyle=1;align=center;verticalAlign=top;childLayout=stackLayout;horizontal=1;startSize=26;horizontalStack=0;resizeParent=1;resizeParentMax=0;resizeLast=0;collapsible=1;marginBottom=0;whiteSpace=wrap;html=1;" parent="WIyWlLk6GJQsqaUBKTNV-1" vertex="1">
          <mxGeometry x="975" y="1100" width="300" height="190" as="geometry" />
        </mxCell>
        <mxCell id="rTpIlooQs98uF8OyqGEr-7" value="+ Id: Guid (key)" style="text;strokeColor=none;fillColor=none;align=left;verticalAlign=top;spacingLeft=4;spacingRight=4;overflow=hidden;rotatable=0;points=[[0,0.5],[1,0.5]];portConstraint=eastwest;whiteSpace=wrap;html=1;" parent="hpsonxkA_LG1c_KUoqw7-195" vertex="1">
          <mxGeometry y="26" width="300" height="26" as="geometry" />
        </mxCell>
        <mxCell id="hpsonxkA_LG1c_KUoqw7-197" value="+ OrderId: Guid (foreighnkey)&amp;nbsp;" style="text;strokeColor=none;fillColor=none;align=left;verticalAlign=top;spacingLeft=4;spacingRight=4;overflow=hidden;rotatable=0;points=[[0,0.5],[1,0.5]];portConstraint=eastwest;whiteSpace=wrap;html=1;" parent="hpsonxkA_LG1c_KUoqw7-195" vertex="1">
          <mxGeometry y="52" width="300" height="26" as="geometry" />
        </mxCell>
        <mxCell id="hpsonxkA_LG1c_KUoqw7-198" value="+ ProductId: Guid (foreighnkey)" style="text;strokeColor=none;fillColor=none;align=left;verticalAlign=top;spacingLeft=4;spacingRight=4;overflow=hidden;rotatable=0;points=[[0,0.5],[1,0.5]];portConstraint=eastwest;whiteSpace=wrap;html=1;" parent="hpsonxkA_LG1c_KUoqw7-195" vertex="1">
          <mxGeometry y="78" width="300" height="26" as="geometry" />
        </mxCell>
        <mxCell id="hpsonxkA_LG1c_KUoqw7-204" value="+ Price: decimal&amp;nbsp;&amp;nbsp;" style="text;strokeColor=none;fillColor=none;align=left;verticalAlign=top;spacingLeft=4;spacingRight=4;overflow=hidden;rotatable=0;points=[[0,0.5],[1,0.5]];portConstraint=eastwest;whiteSpace=wrap;html=1;" parent="hpsonxkA_LG1c_KUoqw7-195" vertex="1">
          <mxGeometry y="104" width="300" height="26" as="geometry" />
        </mxCell>
        <mxCell id="hpsonxkA_LG1c_KUoqw7-200" value="" style="line;strokeWidth=1;fillColor=none;align=left;verticalAlign=middle;spacingTop=-1;spacingLeft=3;spacingRight=3;rotatable=0;labelPosition=right;points=[];portConstraint=eastwest;strokeColor=inherit;" parent="hpsonxkA_LG1c_KUoqw7-195" vertex="1">
          <mxGeometry y="130" width="300" height="8" as="geometry" />
        </mxCell>
        <mxCell id="hpsonxkA_LG1c_KUoqw7-201" value="+ Order: Order (virtual)" style="text;strokeColor=none;fillColor=none;align=left;verticalAlign=top;spacingLeft=4;spacingRight=4;overflow=hidden;rotatable=0;points=[[0,0.5],[1,0.5]];portConstraint=eastwest;whiteSpace=wrap;html=1;" parent="hpsonxkA_LG1c_KUoqw7-195" vertex="1">
          <mxGeometry y="138" width="300" height="26" as="geometry" />
        </mxCell>
        <mxCell id="hpsonxkA_LG1c_KUoqw7-202" value="+ Product: Product (virtual)" style="text;strokeColor=none;fillColor=none;align=left;verticalAlign=top;spacingLeft=4;spacingRight=4;overflow=hidden;rotatable=0;points=[[0,0.5],[1,0.5]];portConstraint=eastwest;whiteSpace=wrap;html=1;" parent="hpsonxkA_LG1c_KUoqw7-195" vertex="1">
          <mxGeometry y="164" width="300" height="26" as="geometry" />
        </mxCell>
        <mxCell id="hpsonxkA_LG1c_KUoqw7-205" value="" style="html=1;verticalAlign=bottom;endArrow=block;curved=0;rounded=0;" parent="WIyWlLk6GJQsqaUBKTNV-1" source="hpsonxkA_LG1c_KUoqw7-195" target="hpsonxkA_LG1c_KUoqw7-185" edge="1">
          <mxGeometry width="80" relative="1" as="geometry">
            <mxPoint x="1345" y="1163" as="sourcePoint" />
            <mxPoint x="1555" y="1268" as="targetPoint" />
          </mxGeometry>
        </mxCell>
        <mxCell id="hpsonxkA_LG1c_KUoqw7-206" value="" style="html=1;verticalAlign=bottom;endArrow=block;curved=0;rounded=0;" parent="WIyWlLk6GJQsqaUBKTNV-1" source="hpsonxkA_LG1c_KUoqw7-195" target="hpsonxkA_LG1c_KUoqw7-248" edge="1">
          <mxGeometry width="80" relative="1" as="geometry">
            <mxPoint x="825" y="1077" as="sourcePoint" />
            <mxPoint x="1015" y="1079" as="targetPoint" />
          </mxGeometry>
        </mxCell>
        <mxCell id="hpsonxkA_LG1c_KUoqw7-207" value="Payment&amp;nbsp;: SoftDeletableEntity" style="swimlane;fontStyle=1;align=center;verticalAlign=top;childLayout=stackLayout;horizontal=1;startSize=26;horizontalStack=0;resizeParent=1;resizeParentMax=0;resizeLast=0;collapsible=1;marginBottom=0;whiteSpace=wrap;html=1;" parent="WIyWlLk6GJQsqaUBKTNV-1" vertex="1">
          <mxGeometry x="525" y="1280" width="300" height="216" as="geometry" />
        </mxCell>
        <mxCell id="hpsonxkA_LG1c_KUoqw7-208" value="+ Id: Guid&amp;nbsp; (key)" style="text;strokeColor=none;fillColor=none;align=left;verticalAlign=top;spacingLeft=4;spacingRight=4;overflow=hidden;rotatable=0;points=[[0,0.5],[1,0.5]];portConstraint=eastwest;whiteSpace=wrap;html=1;" parent="hpsonxkA_LG1c_KUoqw7-207" vertex="1">
          <mxGeometry y="26" width="300" height="26" as="geometry" />
        </mxCell>
        <mxCell id="hpsonxkA_LG1c_KUoqw7-209" value="+ OrderId: Guid (foreighnkey)&amp;nbsp;" style="text;strokeColor=none;fillColor=none;align=left;verticalAlign=top;spacingLeft=4;spacingRight=4;overflow=hidden;rotatable=0;points=[[0,0.5],[1,0.5]];portConstraint=eastwest;whiteSpace=wrap;html=1;" parent="hpsonxkA_LG1c_KUoqw7-207" vertex="1">
          <mxGeometry y="52" width="300" height="26" as="geometry" />
        </mxCell>
        <mxCell id="hpsonxkA_LG1c_KUoqw7-210" value="+ PaymentMethod: PaymentMethod" style="text;strokeColor=none;fillColor=none;align=left;verticalAlign=top;spacingLeft=4;spacingRight=4;overflow=hidden;rotatable=0;points=[[0,0.5],[1,0.5]];portConstraint=eastwest;whiteSpace=wrap;html=1;" parent="hpsonxkA_LG1c_KUoqw7-207" vertex="1">
          <mxGeometry y="78" width="300" height="26" as="geometry" />
        </mxCell>
        <mxCell id="hpsonxkA_LG1c_KUoqw7-211" value="+ Amount: decimal&amp;nbsp;&amp;nbsp;" style="text;strokeColor=none;fillColor=none;align=left;verticalAlign=top;spacingLeft=4;spacingRight=4;overflow=hidden;rotatable=0;points=[[0,0.5],[1,0.5]];portConstraint=eastwest;whiteSpace=wrap;html=1;" parent="hpsonxkA_LG1c_KUoqw7-207" vertex="1">
          <mxGeometry y="104" width="300" height="26" as="geometry" />
        </mxCell>
        <mxCell id="hpsonxkA_LG1c_KUoqw7-215" value="+ PaymentDate: DateTime&amp;nbsp;&amp;nbsp;" style="text;strokeColor=none;fillColor=none;align=left;verticalAlign=top;spacingLeft=4;spacingRight=4;overflow=hidden;rotatable=0;points=[[0,0.5],[1,0.5]];portConstraint=eastwest;whiteSpace=wrap;html=1;" parent="hpsonxkA_LG1c_KUoqw7-207" vertex="1">
          <mxGeometry y="130" width="300" height="26" as="geometry" />
        </mxCell>
        <mxCell id="hpsonxkA_LG1c_KUoqw7-216" value="+ PaymentStatus: PaymentStatus&amp;nbsp;" style="text;strokeColor=none;fillColor=none;align=left;verticalAlign=top;spacingLeft=4;spacingRight=4;overflow=hidden;rotatable=0;points=[[0,0.5],[1,0.5]];portConstraint=eastwest;whiteSpace=wrap;html=1;" parent="hpsonxkA_LG1c_KUoqw7-207" vertex="1">
          <mxGeometry y="156" width="300" height="26" as="geometry" />
        </mxCell>
        <mxCell id="hpsonxkA_LG1c_KUoqw7-212" value="" style="line;strokeWidth=1;fillColor=none;align=left;verticalAlign=middle;spacingTop=-1;spacingLeft=3;spacingRight=3;rotatable=0;labelPosition=right;points=[];portConstraint=eastwest;strokeColor=inherit;" parent="hpsonxkA_LG1c_KUoqw7-207" vertex="1">
          <mxGeometry y="182" width="300" height="8" as="geometry" />
        </mxCell>
        <mxCell id="hpsonxkA_LG1c_KUoqw7-213" value="+ Order: Order (virtual)" style="text;strokeColor=none;fillColor=none;align=left;verticalAlign=top;spacingLeft=4;spacingRight=4;overflow=hidden;rotatable=0;points=[[0,0.5],[1,0.5]];portConstraint=eastwest;whiteSpace=wrap;html=1;" parent="hpsonxkA_LG1c_KUoqw7-207" vertex="1">
          <mxGeometry y="190" width="300" height="26" as="geometry" />
        </mxCell>
        <mxCell id="hpsonxkA_LG1c_KUoqw7-217" value="" style="html=1;verticalAlign=bottom;endArrow=block;curved=0;rounded=0;" parent="WIyWlLk6GJQsqaUBKTNV-1" source="hpsonxkA_LG1c_KUoqw7-207" target="hpsonxkA_LG1c_KUoqw7-247" edge="1">
          <mxGeometry width="80" relative="1" as="geometry">
            <mxPoint x="951" y="1476" as="sourcePoint" />
            <mxPoint x="946" y="1640" as="targetPoint" />
          </mxGeometry>
        </mxCell>
        <mxCell id="hpsonxkA_LG1c_KUoqw7-220" value="&lt;font style=&quot;font-size: 36px;&quot;&gt;General abstractions&lt;/font&gt;" style="text;html=1;align=center;verticalAlign=middle;whiteSpace=wrap;rounded=0;" parent="WIyWlLk6GJQsqaUBKTNV-1" vertex="1">
          <mxGeometry x="690" y="-650" width="390" height="60" as="geometry" />
        </mxCell>
        <mxCell id="hpsonxkA_LG1c_KUoqw7-223" value="UserLibraryGame : SoftDeletableEntity&lt;span style=&quot;color: rgba(0, 0, 0, 0); font-family: monospace; font-size: 0px; font-weight: 400; text-align: start; text-wrap: nowrap;&quot;&gt;%3CmxGraphModel%3E%3Croot%3E%3CmxCell%20id%3D%220%22%2F%3E%3CmxCell%20id%3D%221%22%20parent%3D%220%22%2F%3E%3CmxCell%20id%3D%222%22%20value%3D%22%22%20style%3D%22html%3D1%3BverticalAlign%3Dbottom%3BendArrow%3Dblock%3Bcurved%3D0%3Brounded%3D0%3B%22%20edge%3D%221%22%20parent%3D%221%22%3E%3CmxGeometry%20width%3D%2280%22%20relative%3D%221%22%20as%3D%22geometry%22%3E%3CmxPoint%20x%3D%221030%22%20y%3D%22630%22%20as%3D%22sourcePoint%22%2F%3E%3CmxPoint%20x%3D%221030%22%20y%3D%22568%22%20as%3D%22targetPoint%22%2F%3E%3C%2FmxGeometry%3E%3C%2FmxCell%3E%3C%2Froot%3E%3C%2FmxGraphModel%3E&lt;/span&gt;&lt;span style=&quot;color: rgba(0, 0, 0, 0); font-family: monospace; font-size: 0px; font-weight: 400; text-align: start; text-wrap: nowrap;&quot;&gt;%3CmxGraphModel%3E%3Croot%3E%3CmxCell%20id%3D%220%22%2F%3E%3CmxCell%20id%3D%221%22%20parent%3D%220%22%2F%3E%3CmxCell%20id%3D%222%22%20value%3D%22%22%20style%3D%22html%3D1%3BverticalAlign%3Dbottom%3BendArrow%3Dblock%3Bcurved%3D0%3Brounded%3D0%3B%22%20edge%3D%221%22%20parent%3D%221%22%3E%3CmxGeometry%20width%3D%2280%22%20relative%3D%221%22%20as%3D%22geometry%22%3E%3CmxPoint%20x%3D%221030%22%20y%3D%22630%22%20as%3D%22sourcePoint%22%2F%3E%3CmxPoint%20x%3D%221030%22%20y%3D%22568%22%20as%3D%22targetPoint%22%2F%3E%3C%2FmxGeometry%3E%3C%2FmxCell%3E%3C%2Froot%3E%3C%2FmxGraphModel%3E&lt;/span&gt;" style="swimlane;fontStyle=1;align=center;verticalAlign=top;childLayout=stackLayout;horizontal=1;startSize=26;horizontalStack=0;resizeParent=1;resizeParentMax=0;resizeLast=0;collapsible=1;marginBottom=0;whiteSpace=wrap;html=1;" parent="WIyWlLk6GJQsqaUBKTNV-1" vertex="1">
          <mxGeometry x="-750" y="-291" width="370" height="216" as="geometry" />
        </mxCell>
        <mxCell id="hpsonxkA_LG1c_KUoqw7-224" value="+ Id: Guid&amp;nbsp; (key)" style="text;strokeColor=none;fillColor=none;align=left;verticalAlign=top;spacingLeft=4;spacingRight=4;overflow=hidden;rotatable=0;points=[[0,0.5],[1,0.5]];portConstraint=eastwest;whiteSpace=wrap;html=1;" parent="hpsonxkA_LG1c_KUoqw7-223" vertex="1">
          <mxGeometry y="26" width="370" height="26" as="geometry" />
        </mxCell>
        <mxCell id="hpsonxkA_LG1c_KUoqw7-225" value="+ UserId: Guid (foreighnkey)&amp;nbsp;" style="text;strokeColor=none;fillColor=none;align=left;verticalAlign=top;spacingLeft=4;spacingRight=4;overflow=hidden;rotatable=0;points=[[0,0.5],[1,0.5]];portConstraint=eastwest;whiteSpace=wrap;html=1;" parent="hpsonxkA_LG1c_KUoqw7-223" vertex="1">
          <mxGeometry y="52" width="370" height="26" as="geometry" />
        </mxCell>
        <mxCell id="hpsonxkA_LG1c_KUoqw7-226" value="+ GameId: Guid (foreighnkey)" style="text;strokeColor=none;fillColor=none;align=left;verticalAlign=top;spacingLeft=4;spacingRight=4;overflow=hidden;rotatable=0;points=[[0,0.5],[1,0.5]];portConstraint=eastwest;whiteSpace=wrap;html=1;" parent="hpsonxkA_LG1c_KUoqw7-223" vertex="1">
          <mxGeometry y="78" width="370" height="26" as="geometry" />
        </mxCell>
        <mxCell id="hpsonxkA_LG1c_KUoqw7-227" value="+ PuchaseDate: DateTime" style="text;strokeColor=none;fillColor=none;align=left;verticalAlign=top;spacingLeft=4;spacingRight=4;overflow=hidden;rotatable=0;points=[[0,0.5],[1,0.5]];portConstraint=eastwest;whiteSpace=wrap;html=1;" parent="hpsonxkA_LG1c_KUoqw7-223" vertex="1">
          <mxGeometry y="104" width="370" height="26" as="geometry" />
        </mxCell>
        <mxCell id="hpsonxkA_LG1c_KUoqw7-228" value="" style="line;strokeWidth=1;fillColor=none;align=left;verticalAlign=middle;spacingTop=-1;spacingLeft=3;spacingRight=3;rotatable=0;labelPosition=right;points=[];portConstraint=eastwest;strokeColor=inherit;" parent="hpsonxkA_LG1c_KUoqw7-223" vertex="1">
          <mxGeometry y="130" width="370" height="8" as="geometry" />
        </mxCell>
        <mxCell id="hpsonxkA_LG1c_KUoqw7-229" value="+ User: User (virtual)" style="text;strokeColor=none;fillColor=none;align=left;verticalAlign=top;spacingLeft=4;spacingRight=4;overflow=hidden;rotatable=0;points=[[0,0.5],[1,0.5]];portConstraint=eastwest;whiteSpace=wrap;html=1;" parent="hpsonxkA_LG1c_KUoqw7-223" vertex="1">
          <mxGeometry y="138" width="370" height="26" as="geometry" />
        </mxCell>
        <mxCell id="hpsonxkA_LG1c_KUoqw7-230" value="+ Game: Game (virtual)" style="text;strokeColor=none;fillColor=none;align=left;verticalAlign=top;spacingLeft=4;spacingRight=4;overflow=hidden;rotatable=0;points=[[0,0.5],[1,0.5]];portConstraint=eastwest;whiteSpace=wrap;html=1;" parent="hpsonxkA_LG1c_KUoqw7-223" vertex="1">
          <mxGeometry y="164" width="370" height="26" as="geometry" />
        </mxCell>
        <mxCell id="hpsonxkA_LG1c_KUoqw7-231" value="+ PurchasedAddons: ICollection&amp;lt;UserLibraryAddons&amp;gt; (virtual)" style="text;strokeColor=none;fillColor=none;align=left;verticalAlign=top;spacingLeft=4;spacingRight=4;overflow=hidden;rotatable=0;points=[[0,0.5],[1,0.5]];portConstraint=eastwest;whiteSpace=wrap;html=1;" parent="hpsonxkA_LG1c_KUoqw7-223" vertex="1">
          <mxGeometry y="190" width="370" height="26" as="geometry" />
        </mxCell>
        <mxCell id="hpsonxkA_LG1c_KUoqw7-233" value="&lt;font style=&quot;font-size: 36px;&quot;&gt;Schema : UserProfile&lt;/font&gt;" style="text;html=1;align=center;verticalAlign=middle;whiteSpace=wrap;rounded=0;" parent="WIyWlLk6GJQsqaUBKTNV-1" vertex="1">
          <mxGeometry x="-1010" y="-630" width="390" height="60" as="geometry" />
        </mxCell>
        <mxCell id="hpsonxkA_LG1c_KUoqw7-234" value="" style="html=1;verticalAlign=bottom;endArrow=block;curved=0;rounded=0;" parent="WIyWlLk6GJQsqaUBKTNV-1" source="hpsonxkA_LG1c_KUoqw7-223" target="hpsonxkA_LG1c_KUoqw7-250" edge="1">
          <mxGeometry width="80" relative="1" as="geometry">
            <mxPoint x="465" y="76" as="sourcePoint" />
            <mxPoint x="465" y="289" as="targetPoint" />
          </mxGeometry>
        </mxCell>
        <mxCell id="hpsonxkA_LG1c_KUoqw7-235" value="UserLibraryAddon : SoftDeletableEntity&lt;span style=&quot;color: rgba(0, 0, 0, 0); font-family: monospace; font-size: 0px; font-weight: 400; text-align: start; text-wrap: nowrap;&quot;&gt;%3CmxGraphModel%3E%3Croot%3E%3CmxCell%20id%3D%220%22%2F%3E%3CmxCell%20id%3D%221%22%20parent%3D%220%22%2F%3E%3CmxCell%20id%3D%222%22%20value%3D%22%22%20style%3D%22html%3D1%3BverticalAlign%3Dbottom%3BendArrow%3Dblock%3Bcurved%3D0%3Brounded%3D0%3B%22%20edge%3D%221%22%20parent%3D%221%22%3E%3CmxGeometry%20width%3D%2280%22%20relative%3D%221%22%20as%3D%22geometry%22%3E%3CmxPoint%20x%3D%221030%22%20y%3D%22630%22%20as%3D%22sourcePoint%22%2F%3E%3CmxPoint%20x%3D%221030%22%20y%3D%22568%22%20as%3D%22targetPoint%22%2F%3E%3C%2FmxGeometry%3E%3C%2FmxCell%3E%3C%2Froot%3E%3C%2FmxGraphModel%3E&lt;/span&gt;&lt;span style=&quot;color: rgba(0, 0, 0, 0); font-family: monospace; font-size: 0px; font-weight: 400; text-align: start; text-wrap: nowrap;&quot;&gt;%3CmxGraphModel%3E%3Croot%3E%3CmxCell%20id%3D%220%22%2F%3E%3CmxCell%20id%3D%221%22%20parent%3D%220%22%2F%3E%3CmxCell%20id%3D%222%22%20value%3D%22%22%20style%3D%22html%3D1%3BverticalAlign%3Dbottom%3BendArrow%3Dblock%3Bcurved%3D0%3Brounded%3D0%3B%22%20edge%3D%221%22%20parent%3D%221%22%3E%3CmxGeometry%20width%3D%2280%22%20relative%3D%221%22%20as%3D%22geometry%22%3E%3CmxPoint%20x%3D%221030%22%20y%3D%22630%22%20as%3D%22sourcePoint%22%2F%3E%3CmxPoint%20x%3D%221030%22%20y%3D%22568%22%20as%3D%22targetPoint%22%2F%3E%3C%2FmxGeometry%3E%3C%2FmxCell%3E%3C%2Froot%3E%3C%2FmxGraphModel%3E&lt;/span&gt;" style="swimlane;fontStyle=1;align=center;verticalAlign=top;childLayout=stackLayout;horizontal=1;startSize=26;horizontalStack=0;resizeParent=1;resizeParentMax=0;resizeLast=0;collapsible=1;marginBottom=0;whiteSpace=wrap;html=1;" parent="WIyWlLk6GJQsqaUBKTNV-1" vertex="1">
          <mxGeometry x="-750" y="-546" width="370" height="190" as="geometry" />
        </mxCell>
        <mxCell id="hpsonxkA_LG1c_KUoqw7-236" value="+ Id: Guid&amp;nbsp; (key)" style="text;strokeColor=none;fillColor=none;align=left;verticalAlign=top;spacingLeft=4;spacingRight=4;overflow=hidden;rotatable=0;points=[[0,0.5],[1,0.5]];portConstraint=eastwest;whiteSpace=wrap;html=1;" parent="hpsonxkA_LG1c_KUoqw7-235" vertex="1">
          <mxGeometry y="26" width="370" height="26" as="geometry" />
        </mxCell>
        <mxCell id="hpsonxkA_LG1c_KUoqw7-237" value="+&amp;nbsp;&lt;span style=&quot;text-align: center;&quot;&gt;UserLibraryGame&lt;/span&gt;Id: Guid (foreighnkey)&amp;nbsp;" style="text;strokeColor=none;fillColor=none;align=left;verticalAlign=top;spacingLeft=4;spacingRight=4;overflow=hidden;rotatable=0;points=[[0,0.5],[1,0.5]];portConstraint=eastwest;whiteSpace=wrap;html=1;" parent="hpsonxkA_LG1c_KUoqw7-235" vertex="1">
          <mxGeometry y="52" width="370" height="26" as="geometry" />
        </mxCell>
        <mxCell id="hpsonxkA_LG1c_KUoqw7-238" value="+ GameAddonId: Guid (foreighnkey)" style="text;strokeColor=none;fillColor=none;align=left;verticalAlign=top;spacingLeft=4;spacingRight=4;overflow=hidden;rotatable=0;points=[[0,0.5],[1,0.5]];portConstraint=eastwest;whiteSpace=wrap;html=1;" parent="hpsonxkA_LG1c_KUoqw7-235" vertex="1">
          <mxGeometry y="78" width="370" height="26" as="geometry" />
        </mxCell>
        <mxCell id="hpsonxkA_LG1c_KUoqw7-239" value="+ PuchaseDate: DateTime" style="text;strokeColor=none;fillColor=none;align=left;verticalAlign=top;spacingLeft=4;spacingRight=4;overflow=hidden;rotatable=0;points=[[0,0.5],[1,0.5]];portConstraint=eastwest;whiteSpace=wrap;html=1;" parent="hpsonxkA_LG1c_KUoqw7-235" vertex="1">
          <mxGeometry y="104" width="370" height="26" as="geometry" />
        </mxCell>
        <mxCell id="hpsonxkA_LG1c_KUoqw7-240" value="" style="line;strokeWidth=1;fillColor=none;align=left;verticalAlign=middle;spacingTop=-1;spacingLeft=3;spacingRight=3;rotatable=0;labelPosition=right;points=[];portConstraint=eastwest;strokeColor=inherit;" parent="hpsonxkA_LG1c_KUoqw7-235" vertex="1">
          <mxGeometry y="130" width="370" height="8" as="geometry" />
        </mxCell>
        <mxCell id="hpsonxkA_LG1c_KUoqw7-241" value="+&amp;nbsp;&lt;span style=&quot;text-align: center;&quot;&gt;UserLibraryGame&lt;/span&gt;:&amp;nbsp;&lt;span style=&quot;text-align: center;&quot;&gt;UserLibraryGame&lt;/span&gt;&amp;nbsp;(virtual)" style="text;strokeColor=none;fillColor=none;align=left;verticalAlign=top;spacingLeft=4;spacingRight=4;overflow=hidden;rotatable=0;points=[[0,0.5],[1,0.5]];portConstraint=eastwest;whiteSpace=wrap;html=1;" parent="hpsonxkA_LG1c_KUoqw7-235" vertex="1">
          <mxGeometry y="138" width="370" height="26" as="geometry" />
        </mxCell>
        <mxCell id="hpsonxkA_LG1c_KUoqw7-242" value="+ GameAddon: GameAddon&amp;nbsp;(virtual)" style="text;strokeColor=none;fillColor=none;align=left;verticalAlign=top;spacingLeft=4;spacingRight=4;overflow=hidden;rotatable=0;points=[[0,0.5],[1,0.5]];portConstraint=eastwest;whiteSpace=wrap;html=1;" parent="hpsonxkA_LG1c_KUoqw7-235" vertex="1">
          <mxGeometry y="164" width="370" height="26" as="geometry" />
        </mxCell>
        <mxCell id="hpsonxkA_LG1c_KUoqw7-244" value="" style="html=1;verticalAlign=bottom;endArrow=block;curved=0;rounded=0;" parent="WIyWlLk6GJQsqaUBKTNV-1" source="hpsonxkA_LG1c_KUoqw7-223" target="hpsonxkA_LG1c_KUoqw7-235" edge="1">
          <mxGeometry width="80" relative="1" as="geometry">
            <mxPoint x="439" y="56" as="sourcePoint" />
            <mxPoint x="468" y="352" as="targetPoint" />
          </mxGeometry>
        </mxCell>
        <mxCell id="hpsonxkA_LG1c_KUoqw7-245" value="" style="html=1;verticalAlign=bottom;endArrow=block;curved=0;rounded=0;" parent="WIyWlLk6GJQsqaUBKTNV-1" source="hpsonxkA_LG1c_KUoqw7-235" target="hpsonxkA_LG1c_KUoqw7-249" edge="1">
          <mxGeometry width="80" relative="1" as="geometry">
            <mxPoint x="-245" y="600" as="sourcePoint" />
            <mxPoint x="-245" y="490" as="targetPoint" />
          </mxGeometry>
        </mxCell>
        <mxCell id="hpsonxkA_LG1c_KUoqw7-246" value="" style="html=1;verticalAlign=bottom;endArrow=block;curved=0;rounded=0;" parent="WIyWlLk6GJQsqaUBKTNV-1" source="hpsonxkA_LG1c_KUoqw7-223" target="hpsonxkA_LG1c_KUoqw7-5" edge="1">
          <mxGeometry width="80" relative="1" as="geometry">
            <mxPoint x="-245" y="620" as="sourcePoint" />
            <mxPoint x="-245" y="490" as="targetPoint" />
          </mxGeometry>
        </mxCell>
        <mxCell id="hpsonxkA_LG1c_KUoqw7-247" value="&lt;span style=&quot;font-weight: 700;&quot;&gt;Schema : UserProfile&lt;br&gt;&lt;/span&gt;&lt;span style=&quot;font-weight: 700;&quot;&gt;&lt;br&gt;User&amp;nbsp;: SoftDeletableEntity&lt;br&gt;&lt;/span&gt;" style="html=1;whiteSpace=wrap;" parent="WIyWlLk6GJQsqaUBKTNV-1" vertex="1">
          <mxGeometry x="545" y="1720" width="240" height="74" as="geometry" />
        </mxCell>
        <mxCell id="hpsonxkA_LG1c_KUoqw7-248" value="&lt;span style=&quot;font-weight: 700;&quot;&gt;Schema : Games&lt;br&gt;&lt;/span&gt;&lt;span style=&quot;font-weight: 700;&quot;&gt;&lt;br&gt;Game : Product&lt;br&gt;&lt;/span&gt;" style="html=1;whiteSpace=wrap;" parent="WIyWlLk6GJQsqaUBKTNV-1" vertex="1">
          <mxGeometry x="535" y="870" width="240" height="74" as="geometry" />
        </mxCell>
        <mxCell id="hpsonxkA_LG1c_KUoqw7-249" value="&lt;span style=&quot;font-weight: 700;&quot;&gt;Schema : Games&lt;br&gt;&lt;/span&gt;&lt;span style=&quot;font-weight: 700;&quot;&gt;&lt;br&gt;&lt;/span&gt;&lt;span style=&quot;font-weight: 700;&quot;&gt;GameAddon : Product&lt;/span&gt;&lt;span style=&quot;font-weight: 700;&quot;&gt;&lt;br&gt;&lt;/span&gt;" style="html=1;whiteSpace=wrap;" parent="WIyWlLk6GJQsqaUBKTNV-1" vertex="1">
          <mxGeometry x="-120" y="-460" width="240" height="74" as="geometry" />
        </mxCell>
        <mxCell id="hpsonxkA_LG1c_KUoqw7-250" value="&lt;span style=&quot;font-weight: 700;&quot;&gt;Schema : Games&lt;br&gt;&lt;/span&gt;&lt;span style=&quot;font-weight: 700;&quot;&gt;&lt;br&gt;&lt;/span&gt;&lt;span style=&quot;font-weight: 700;&quot;&gt;Game : Product&lt;/span&gt;&lt;span style=&quot;font-weight: 700;&quot;&gt;&lt;br&gt;&lt;/span&gt;" style="html=1;whiteSpace=wrap;" parent="WIyWlLk6GJQsqaUBKTNV-1" vertex="1">
          <mxGeometry x="-90" y="67" width="240" height="74" as="geometry" />
        </mxCell>
        <mxCell id="hpsonxkA_LG1c_KUoqw7-253" value="Review : SoftDeletableEntity&lt;span style=&quot;color: rgba(0, 0, 0, 0); font-family: monospace; font-size: 0px; font-weight: 400; text-align: start; text-wrap: nowrap;&quot;&gt;%3CmxGraphModel%3E%3Croot%3E%3CmxCell%20id%3D%220%22%2F%3E%3CmxCell%20id%3D%221%22%20parent%3D%220%22%2F%3E%3CmxCell%20id%3D%222%22%20value%3D%22%22%20style%3D%22html%3D1%3BverticalAlign%3Dbottom%3BendArrow%3Dblock%3Bcurved%3D0%3Brounded%3D0%3B%22%20edge%3D%221%22%20parent%3D%221%22%3E%3CmxGeometry%20width%3D%2280%22%20relative%3D%221%22%20as%3D%22geometry%22%3E%3CmxPoint%20x%3D%221030%22%20y%3D%22630%22%20as%3D%22sourcePoint%22%2F%3E%3CmxPoint%20x%3D%221030%22%20y%3D%22568%22%20as%3D%22targetPoint%22%2F%3E%3C%2FmxGeometry%3E%3C%2FmxCell%3E%3C%2Froot%3E%3C%2FmxGraphModel%3E&lt;/span&gt;&lt;span style=&quot;color: rgba(0, 0, 0, 0); font-family: monospace; font-size: 0px; font-weight: 400; text-align: start; text-wrap: nowrap;&quot;&gt;%3CmxGraphModel%3E%3Croot%3E%3CmxCell%20id%3D%220%22%2F%3E%3CmxCell%20id%3D%221%22%20parent%3D%220%22%2F%3E%3CmxCell%20id%3D%222%22%20value%3D%22%22%20style%3D%22html%3D1%3BverticalAlign%3Dbottom%3BendArrow%3Dblock%3Bcurved%3D0%3Brounded%3D0%3B%22%20edge%3D%221%22%20parent%3D%221%22%3E%3CmxGeometry%20width%3D%2280%22%20relative%3D%221%22%20as%3D%22geometry%22%3E%3CmxPoint%20x%3D%221030%22%20y%3D%22630%22%20as%3D%22sourcePoint%22%2F%3E%3CmxPoint%20x%3D%221030%22%20y%3D%22568%22%20as%3D%22targetPoint%22%2F%3E%3C%2FmxGeometry%3E%3C%2FmxCell%3E%3C%2Froot%3E%3C%2FmxGraphModel%3E&lt;/span&gt;" style="swimlane;fontStyle=1;align=center;verticalAlign=top;childLayout=stackLayout;horizontal=1;startSize=26;horizontalStack=0;resizeParent=1;resizeParentMax=0;resizeLast=0;collapsible=1;marginBottom=0;whiteSpace=wrap;html=1;" parent="WIyWlLk6GJQsqaUBKTNV-1" vertex="1">
          <mxGeometry x="-750" y="-30" width="370" height="268" as="geometry" />
        </mxCell>
        <mxCell id="hpsonxkA_LG1c_KUoqw7-254" value="+ Id: Guid&amp;nbsp; (key)" style="text;strokeColor=none;fillColor=none;align=left;verticalAlign=top;spacingLeft=4;spacingRight=4;overflow=hidden;rotatable=0;points=[[0,0.5],[1,0.5]];portConstraint=eastwest;whiteSpace=wrap;html=1;" parent="hpsonxkA_LG1c_KUoqw7-253" vertex="1">
          <mxGeometry y="26" width="370" height="26" as="geometry" />
        </mxCell>
        <mxCell id="hpsonxkA_LG1c_KUoqw7-255" value="+ UserId: Guid (foreighnkey)&amp;nbsp;" style="text;strokeColor=none;fillColor=none;align=left;verticalAlign=top;spacingLeft=4;spacingRight=4;overflow=hidden;rotatable=0;points=[[0,0.5],[1,0.5]];portConstraint=eastwest;whiteSpace=wrap;html=1;" parent="hpsonxkA_LG1c_KUoqw7-253" vertex="1">
          <mxGeometry y="52" width="370" height="26" as="geometry" />
        </mxCell>
        <mxCell id="hpsonxkA_LG1c_KUoqw7-256" value="+ GameId: Guid (foreighnkey)" style="text;strokeColor=none;fillColor=none;align=left;verticalAlign=top;spacingLeft=4;spacingRight=4;overflow=hidden;rotatable=0;points=[[0,0.5],[1,0.5]];portConstraint=eastwest;whiteSpace=wrap;html=1;" parent="hpsonxkA_LG1c_KUoqw7-253" vertex="1">
          <mxGeometry y="78" width="370" height="26" as="geometry" />
        </mxCell>
        <mxCell id="hpsonxkA_LG1c_KUoqw7-262" value="+ Rating: int [Range(1, 5)]" style="text;strokeColor=none;fillColor=none;align=left;verticalAlign=top;spacingLeft=4;spacingRight=4;overflow=hidden;rotatable=0;points=[[0,0.5],[1,0.5]];portConstraint=eastwest;whiteSpace=wrap;html=1;" parent="hpsonxkA_LG1c_KUoqw7-253" vertex="1">
          <mxGeometry y="104" width="370" height="26" as="geometry" />
        </mxCell>
        <mxCell id="hpsonxkA_LG1c_KUoqw7-263" value="+ Comment: string" style="text;strokeColor=none;fillColor=none;align=left;verticalAlign=top;spacingLeft=4;spacingRight=4;overflow=hidden;rotatable=0;points=[[0,0.5],[1,0.5]];portConstraint=eastwest;whiteSpace=wrap;html=1;" parent="hpsonxkA_LG1c_KUoqw7-253" vertex="1">
          <mxGeometry y="130" width="370" height="26" as="geometry" />
        </mxCell>
        <mxCell id="hpsonxkA_LG1c_KUoqw7-257" value="+ CreatedAt: DateTime" style="text;strokeColor=none;fillColor=none;align=left;verticalAlign=top;spacingLeft=4;spacingRight=4;overflow=hidden;rotatable=0;points=[[0,0.5],[1,0.5]];portConstraint=eastwest;whiteSpace=wrap;html=1;" parent="hpsonxkA_LG1c_KUoqw7-253" vertex="1">
          <mxGeometry y="156" width="370" height="26" as="geometry" />
        </mxCell>
        <mxCell id="hpsonxkA_LG1c_KUoqw7-265" value="+ IsApproved: bool" style="text;strokeColor=none;fillColor=none;align=left;verticalAlign=top;spacingLeft=4;spacingRight=4;overflow=hidden;rotatable=0;points=[[0,0.5],[1,0.5]];portConstraint=eastwest;whiteSpace=wrap;html=1;" parent="hpsonxkA_LG1c_KUoqw7-253" vertex="1">
          <mxGeometry y="182" width="370" height="26" as="geometry" />
        </mxCell>
        <mxCell id="hpsonxkA_LG1c_KUoqw7-258" value="" style="line;strokeWidth=1;fillColor=none;align=left;verticalAlign=middle;spacingTop=-1;spacingLeft=3;spacingRight=3;rotatable=0;labelPosition=right;points=[];portConstraint=eastwest;strokeColor=inherit;" parent="hpsonxkA_LG1c_KUoqw7-253" vertex="1">
          <mxGeometry y="208" width="370" height="8" as="geometry" />
        </mxCell>
        <mxCell id="hpsonxkA_LG1c_KUoqw7-259" value="+ User: User (virtual)" style="text;strokeColor=none;fillColor=none;align=left;verticalAlign=top;spacingLeft=4;spacingRight=4;overflow=hidden;rotatable=0;points=[[0,0.5],[1,0.5]];portConstraint=eastwest;whiteSpace=wrap;html=1;" parent="hpsonxkA_LG1c_KUoqw7-253" vertex="1">
          <mxGeometry y="216" width="370" height="26" as="geometry" />
        </mxCell>
        <mxCell id="hpsonxkA_LG1c_KUoqw7-260" value="+ Game: Game (virtual)" style="text;strokeColor=none;fillColor=none;align=left;verticalAlign=top;spacingLeft=4;spacingRight=4;overflow=hidden;rotatable=0;points=[[0,0.5],[1,0.5]];portConstraint=eastwest;whiteSpace=wrap;html=1;" parent="hpsonxkA_LG1c_KUoqw7-253" vertex="1">
          <mxGeometry y="242" width="370" height="26" as="geometry" />
        </mxCell>
        <mxCell id="hpsonxkA_LG1c_KUoqw7-266" value="" style="html=1;verticalAlign=bottom;endArrow=block;curved=0;rounded=0;" parent="WIyWlLk6GJQsqaUBKTNV-1" source="hpsonxkA_LG1c_KUoqw7-253" target="hpsonxkA_LG1c_KUoqw7-5" edge="1">
          <mxGeometry width="80" relative="1" as="geometry">
            <mxPoint x="-555" y="-47" as="sourcePoint" />
            <mxPoint x="-555" y="80" as="targetPoint" />
          </mxGeometry>
        </mxCell>
        <mxCell id="hpsonxkA_LG1c_KUoqw7-269" value="" style="html=1;verticalAlign=bottom;endArrow=block;curved=0;rounded=0;" parent="WIyWlLk6GJQsqaUBKTNV-1" source="hpsonxkA_LG1c_KUoqw7-253" target="hpsonxkA_LG1c_KUoqw7-250" edge="1">
          <mxGeometry width="80" relative="1" as="geometry">
            <mxPoint x="-370" y="-198" as="sourcePoint" />
            <mxPoint x="-110" y="-259" as="targetPoint" />
          </mxGeometry>
        </mxCell>
        <mxCell id="hpsonxkA_LG1c_KUoqw7-281" value="Achievement : SoftDeletableEntity&lt;span style=&quot;color: rgba(0, 0, 0, 0); font-family: monospace; font-size: 0px; font-weight: 400; text-align: start; text-wrap: nowrap;&quot;&gt;%3CmxGraphModel%3E%3Croot%3E%3CmxCell%20id%3D%220%22%2F%3E%3CmxCell%20id%3D%221%22%20parent%3D%220%22%2F%3E%3CmxCell%20id%3D%222%22%20value%3D%22%22%20style%3D%22html%3D1%3BverticalAlign%3Dbottom%3BendArrow%3Dblock%3Bcurved%3D0%3Brounded%3D0%3B%22%20edge%3D%221%22%20parent%3D%221%22%3E%3CmxGeometry%20width%3D%2280%22%20relative%3D%221%22%20as%3D%22geometry%22%3E%3CmxPoint%20x%3D%221030%22%20y%3D%22630%22%20as%3D%22sourcePoint%22%2F%3E%3CmxPoint%20x%3D%221030%22%20y%3D%22568%22%20as%3D%22targetPoint%22%2F%3E%3C%2FmxGeometry%3E%3C%2FmxCell%3E%3C%2Froot%3E%3C%2FmxGraphModel%3E&lt;/span&gt;&lt;span style=&quot;color: rgba(0, 0, 0, 0); font-family: monospace; font-size: 0px; font-weight: 400; text-align: start; text-wrap: nowrap;&quot;&gt;%3CmxGraphModel%3E%3Croot%3E%3CmxCell%20id%3D%220%22%2F%3E%3CmxCell%20id%3D%221%22%20parent%3D%220%22%2F%3E%3CmxCell%20id%3D%222%22%20value%3D%22%22%20style%3D%22html%3D1%3BverticalAlign%3Dbottom%3BendArrow%3Dblock%3Bcurved%3D0%3Brounded%3D0%3B%22%20edge%3D%221%22%20parent%3D%221%22%3E%3CmxGeometry%20width%3D%2280%22%20relative%3D%221%22%20as%3D%22geometry%22%3E%3CmxPoint%20x%3D%221030%22%20y%3D%22630%22%20as%3D%22sourcePoint%22%2F%3E%3CmxPoint%20x%3D%221030%22%20y%3D%22568%22%20as%3D%22targetPoint%22%2F%3E%3C%2FmxGeometry%3E%3C%2FmxCell%3E%3C%2Froot%3E%3C%2FmxGraphModel%3E&lt;/span&gt;" style="swimlane;fontStyle=1;align=center;verticalAlign=top;childLayout=stackLayout;horizontal=1;startSize=26;horizontalStack=0;resizeParent=1;resizeParentMax=0;resizeLast=0;collapsible=1;marginBottom=0;whiteSpace=wrap;html=1;" parent="WIyWlLk6GJQsqaUBKTNV-1" vertex="1">
          <mxGeometry x="-750" y="300" width="370" height="242" as="geometry" />
        </mxCell>
        <mxCell id="hpsonxkA_LG1c_KUoqw7-282" value="+ Id: Guid&amp;nbsp; (key)" style="text;strokeColor=none;fillColor=none;align=left;verticalAlign=top;spacingLeft=4;spacingRight=4;overflow=hidden;rotatable=0;points=[[0,0.5],[1,0.5]];portConstraint=eastwest;whiteSpace=wrap;html=1;" parent="hpsonxkA_LG1c_KUoqw7-281" vertex="1">
          <mxGeometry y="26" width="370" height="26" as="geometry" />
        </mxCell>
        <mxCell id="hpsonxkA_LG1c_KUoqw7-284" value="+ GameId: Guid (foreighnkey)" style="text;strokeColor=none;fillColor=none;align=left;verticalAlign=top;spacingLeft=4;spacingRight=4;overflow=hidden;rotatable=0;points=[[0,0.5],[1,0.5]];portConstraint=eastwest;whiteSpace=wrap;html=1;" parent="hpsonxkA_LG1c_KUoqw7-281" vertex="1">
          <mxGeometry y="52" width="370" height="26" as="geometry" />
        </mxCell>
        <mxCell id="hpsonxkA_LG1c_KUoqw7-285" value="+ Name: string" style="text;strokeColor=none;fillColor=none;align=left;verticalAlign=top;spacingLeft=4;spacingRight=4;overflow=hidden;rotatable=0;points=[[0,0.5],[1,0.5]];portConstraint=eastwest;whiteSpace=wrap;html=1;" parent="hpsonxkA_LG1c_KUoqw7-281" vertex="1">
          <mxGeometry y="78" width="370" height="26" as="geometry" />
        </mxCell>
        <mxCell id="hpsonxkA_LG1c_KUoqw7-287" value="+ Description: string" style="text;strokeColor=none;fillColor=none;align=left;verticalAlign=top;spacingLeft=4;spacingRight=4;overflow=hidden;rotatable=0;points=[[0,0.5],[1,0.5]];portConstraint=eastwest;whiteSpace=wrap;html=1;" parent="hpsonxkA_LG1c_KUoqw7-281" vertex="1">
          <mxGeometry y="104" width="370" height="26" as="geometry" />
        </mxCell>
        <mxCell id="hpsonxkA_LG1c_KUoqw7-286" value="+ Points: int" style="text;strokeColor=none;fillColor=none;align=left;verticalAlign=top;spacingLeft=4;spacingRight=4;overflow=hidden;rotatable=0;points=[[0,0.5],[1,0.5]];portConstraint=eastwest;whiteSpace=wrap;html=1;" parent="hpsonxkA_LG1c_KUoqw7-281" vertex="1">
          <mxGeometry y="130" width="370" height="26" as="geometry" />
        </mxCell>
        <mxCell id="hpsonxkA_LG1c_KUoqw7-288" value="+ LogoUrl: string" style="text;strokeColor=none;fillColor=none;align=left;verticalAlign=top;spacingLeft=4;spacingRight=4;overflow=hidden;rotatable=0;points=[[0,0.5],[1,0.5]];portConstraint=eastwest;whiteSpace=wrap;html=1;" parent="hpsonxkA_LG1c_KUoqw7-281" vertex="1">
          <mxGeometry y="156" width="370" height="26" as="geometry" />
        </mxCell>
        <mxCell id="hpsonxkA_LG1c_KUoqw7-289" value="" style="line;strokeWidth=1;fillColor=none;align=left;verticalAlign=middle;spacingTop=-1;spacingLeft=3;spacingRight=3;rotatable=0;labelPosition=right;points=[];portConstraint=eastwest;strokeColor=inherit;" parent="hpsonxkA_LG1c_KUoqw7-281" vertex="1">
          <mxGeometry y="182" width="370" height="8" as="geometry" />
        </mxCell>
        <mxCell id="hpsonxkA_LG1c_KUoqw7-291" value="+ Game: Game (virtual)" style="text;strokeColor=none;fillColor=none;align=left;verticalAlign=top;spacingLeft=4;spacingRight=4;overflow=hidden;rotatable=0;points=[[0,0.5],[1,0.5]];portConstraint=eastwest;whiteSpace=wrap;html=1;" parent="hpsonxkA_LG1c_KUoqw7-281" vertex="1">
          <mxGeometry y="190" width="370" height="26" as="geometry" />
        </mxCell>
        <mxCell id="hpsonxkA_LG1c_KUoqw7-308" value="+&amp;nbsp;&lt;span style=&quot;text-align: center;&quot;&gt;UserAchievements&lt;/span&gt;: ICollection&amp;lt;&lt;span style=&quot;text-align: center;&quot;&gt;UserAchievement&lt;/span&gt;&amp;gt; (virtual)" style="text;strokeColor=none;fillColor=none;align=left;verticalAlign=top;spacingLeft=4;spacingRight=4;overflow=hidden;rotatable=0;points=[[0,0.5],[1,0.5]];portConstraint=eastwest;whiteSpace=wrap;html=1;" parent="hpsonxkA_LG1c_KUoqw7-281" vertex="1">
          <mxGeometry y="216" width="370" height="26" as="geometry" />
        </mxCell>
        <mxCell id="hpsonxkA_LG1c_KUoqw7-292" value="" style="html=1;verticalAlign=bottom;endArrow=block;curved=0;rounded=0;" parent="WIyWlLk6GJQsqaUBKTNV-1" source="hpsonxkA_LG1c_KUoqw7-281" target="hpsonxkA_LG1c_KUoqw7-250" edge="1">
          <mxGeometry width="80" relative="1" as="geometry">
            <mxPoint x="-370" y="114" as="sourcePoint" />
            <mxPoint x="-80" y="114" as="targetPoint" />
          </mxGeometry>
        </mxCell>
        <mxCell id="hpsonxkA_LG1c_KUoqw7-293" value="UserAchievement : SoftDeletableEntity&lt;span style=&quot;color: rgba(0, 0, 0, 0); font-family: monospace; font-size: 0px; font-weight: 400; text-align: start; text-wrap: nowrap;&quot;&gt;%3CmxGraphModel%3E%3Croot%3E%3CmxCell%20id%3D%220%22%2F%3E%3CmxCell%20id%3D%221%22%20parent%3D%220%22%2F%3E%3CmxCell%20id%3D%222%22%20value%3D%22%22%20style%3D%22html%3D1%3BverticalAlign%3Dbottom%3BendArrow%3Dblock%3Bcurved%3D0%3Brounded%3D0%3B%22%20edge%3D%221%22%20parent%3D%221%22%3E%3CmxGeometry%20width%3D%2280%22%20relative%3D%221%22%20as%3D%22geometry%22%3E%3CmxPoint%20x%3D%221030%22%20y%3D%22630%22%20as%3D%22sourcePoint%22%2F%3E%3CmxPoint%20x%3D%221030%22%20y%3D%22568%22%20as%3D%22targetPoint%22%2F%3E%3C%2FmxGeometry%3E%3C%2FmxCell%3E%3C%2Froot%3E%3C%2FmxGraphModel%3E&lt;/span&gt;&lt;span style=&quot;color: rgba(0, 0, 0, 0); font-family: monospace; font-size: 0px; font-weight: 400; text-align: start; text-wrap: nowrap;&quot;&gt;%3CmxGraphModel%3E%3Croot%3E%3CmxCell%20id%3D%220%22%2F%3E%3CmxCell%20id%3D%221%22%20parent%3D%220%22%2F%3E%3CmxCell%20id%3D%222%22%20value%3D%22%22%20style%3D%22html%3D1%3BverticalAlign%3Dbottom%3BendArrow%3Dblock%3Bcurved%3D0%3Brounded%3D0%3B%22%20edge%3D%221%22%20parent%3D%221%22%3E%3CmxGeometry%20width%3D%2280%22%20relative%3D%221%22%20as%3D%22geometry%22%3E%3CmxPoint%20x%3D%221030%22%20y%3D%22630%22%20as%3D%22sourcePoint%22%2F%3E%3CmxPoint%20x%3D%221030%22%20y%3D%22568%22%20as%3D%22targetPoint%22%2F%3E%3C%2FmxGeometry%3E%3C%2FmxCell%3E%3C%2Froot%3E%3C%2FmxGraphModel%3E&lt;/span&gt;" style="swimlane;fontStyle=1;align=center;verticalAlign=top;childLayout=stackLayout;horizontal=1;startSize=26;horizontalStack=0;resizeParent=1;resizeParentMax=0;resizeLast=0;collapsible=1;marginBottom=0;whiteSpace=wrap;html=1;" parent="WIyWlLk6GJQsqaUBKTNV-1" vertex="1">
          <mxGeometry x="-1280" y="300" width="370" height="190" as="geometry" />
        </mxCell>
        <mxCell id="hpsonxkA_LG1c_KUoqw7-294" value="+ Id: Guid&amp;nbsp; (key)" style="text;strokeColor=none;fillColor=none;align=left;verticalAlign=top;spacingLeft=4;spacingRight=4;overflow=hidden;rotatable=0;points=[[0,0.5],[1,0.5]];portConstraint=eastwest;whiteSpace=wrap;html=1;" parent="hpsonxkA_LG1c_KUoqw7-293" vertex="1">
          <mxGeometry y="26" width="370" height="26" as="geometry" />
        </mxCell>
        <mxCell id="hpsonxkA_LG1c_KUoqw7-295" value="+ UserId: Guid (foreighnkey)" style="text;strokeColor=none;fillColor=none;align=left;verticalAlign=top;spacingLeft=4;spacingRight=4;overflow=hidden;rotatable=0;points=[[0,0.5],[1,0.5]];portConstraint=eastwest;whiteSpace=wrap;html=1;" parent="hpsonxkA_LG1c_KUoqw7-293" vertex="1">
          <mxGeometry y="52" width="370" height="26" as="geometry" />
        </mxCell>
        <mxCell id="hpsonxkA_LG1c_KUoqw7-302" value="+ AchievementId: Guid (foreighnkey)" style="text;strokeColor=none;fillColor=none;align=left;verticalAlign=top;spacingLeft=4;spacingRight=4;overflow=hidden;rotatable=0;points=[[0,0.5],[1,0.5]];portConstraint=eastwest;whiteSpace=wrap;html=1;" parent="hpsonxkA_LG1c_KUoqw7-293" vertex="1">
          <mxGeometry y="78" width="370" height="26" as="geometry" />
        </mxCell>
        <mxCell id="hpsonxkA_LG1c_KUoqw7-296" value="+ AchievedAt: DateTime" style="text;strokeColor=none;fillColor=none;align=left;verticalAlign=top;spacingLeft=4;spacingRight=4;overflow=hidden;rotatable=0;points=[[0,0.5],[1,0.5]];portConstraint=eastwest;whiteSpace=wrap;html=1;" parent="hpsonxkA_LG1c_KUoqw7-293" vertex="1">
          <mxGeometry y="104" width="370" height="26" as="geometry" />
        </mxCell>
        <mxCell id="hpsonxkA_LG1c_KUoqw7-300" value="" style="line;strokeWidth=1;fillColor=none;align=left;verticalAlign=middle;spacingTop=-1;spacingLeft=3;spacingRight=3;rotatable=0;labelPosition=right;points=[];portConstraint=eastwest;strokeColor=inherit;" parent="hpsonxkA_LG1c_KUoqw7-293" vertex="1">
          <mxGeometry y="130" width="370" height="8" as="geometry" />
        </mxCell>
        <mxCell id="hpsonxkA_LG1c_KUoqw7-301" value="+ User: User (virtual)" style="text;strokeColor=none;fillColor=none;align=left;verticalAlign=top;spacingLeft=4;spacingRight=4;overflow=hidden;rotatable=0;points=[[0,0.5],[1,0.5]];portConstraint=eastwest;whiteSpace=wrap;html=1;" parent="hpsonxkA_LG1c_KUoqw7-293" vertex="1">
          <mxGeometry y="138" width="370" height="26" as="geometry" />
        </mxCell>
        <mxCell id="hpsonxkA_LG1c_KUoqw7-303" value="+ Achievement: Achievement&amp;nbsp;(virtual)" style="text;strokeColor=none;fillColor=none;align=left;verticalAlign=top;spacingLeft=4;spacingRight=4;overflow=hidden;rotatable=0;points=[[0,0.5],[1,0.5]];portConstraint=eastwest;whiteSpace=wrap;html=1;" parent="hpsonxkA_LG1c_KUoqw7-293" vertex="1">
          <mxGeometry y="164" width="370" height="26" as="geometry" />
        </mxCell>
        <mxCell id="hpsonxkA_LG1c_KUoqw7-305" value="" style="html=1;verticalAlign=bottom;endArrow=block;curved=0;rounded=0;" parent="WIyWlLk6GJQsqaUBKTNV-1" source="hpsonxkA_LG1c_KUoqw7-293" target="hpsonxkA_LG1c_KUoqw7-281" edge="1">
          <mxGeometry width="80" relative="1" as="geometry">
            <mxPoint x="-860" y="280" as="sourcePoint" />
            <mxPoint x="-570" y="280" as="targetPoint" />
          </mxGeometry>
        </mxCell>
        <mxCell id="hpsonxkA_LG1c_KUoqw7-306" value="" style="html=1;verticalAlign=bottom;endArrow=block;curved=0;rounded=0;" parent="WIyWlLk6GJQsqaUBKTNV-1" source="hpsonxkA_LG1c_KUoqw7-293" target="hpsonxkA_LG1c_KUoqw7-5" edge="1">
          <mxGeometry width="80" relative="1" as="geometry">
            <mxPoint x="-890" y="358" as="sourcePoint" />
            <mxPoint x="-740" y="385" as="targetPoint" />
          </mxGeometry>
        </mxCell>
        <mxCell id="hpsonxkA_LG1c_KUoqw7-309" value="" style="rounded=0;whiteSpace=wrap;html=1;fillColor=light-dark(#FFFFFF,#000000);" parent="WIyWlLk6GJQsqaUBKTNV-1" vertex="1">
          <mxGeometry x="-1450" y="710" width="1310" height="480" as="geometry" />
        </mxCell>
        <mxCell id="hpsonxkA_LG1c_KUoqw7-310" value="&lt;font style=&quot;font-size: 36px;&quot;&gt;Schema : Support&lt;/font&gt;" style="text;html=1;align=center;verticalAlign=middle;whiteSpace=wrap;rounded=0;" parent="WIyWlLk6GJQsqaUBKTNV-1" vertex="1">
          <mxGeometry x="-1010" y="750" width="390" height="60" as="geometry" />
        </mxCell>
        <mxCell id="hpsonxkA_LG1c_KUoqw7-311" value="SupportTicket : SoftDeletableEntity&lt;span style=&quot;color: rgba(0, 0, 0, 0); font-family: monospace; font-size: 0px; font-weight: 400; text-align: start; text-wrap: nowrap;&quot;&gt;%3CmxGraphModel%3E%3Croot%3E%3CmxCell%20id%3D%220%22%2F%3E%3CmxCell%20id%3D%221%22%20parent%3D%220%22%2F%3E%3CmxCell%20id%3D%222%22%20value%3D%22%22%20style%3D%22html%3D1%3BverticalAlign%3Dbottom%3BendArrow%3Dblock%3Bcurved%3D0%3Brounded%3D0%3B%22%20edge%3D%221%22%20parent%3D%221%22%3E%3CmxGeometry%20width%3D%2280%22%20relative%3D%221%22%20as%3D%22geometry%22%3E%3CmxPoint%20x%3D%221030%22%20y%3D%22630%22%20as%3D%22sourcePoint%22%2F%3E%3CmxPoint%20x%3D%221030%22%20y%3D%22568%22%20as%3D%22targetPoint%22%2F%3E%3C%2FmxGeometry%3E%3C%2FmxCell%3E%3C%2Froot%3E%3C%2FmxGraphModel%3E&lt;/span&gt;&lt;span style=&quot;color: rgba(0, 0, 0, 0); font-family: monospace; font-size: 0px; font-weight: 400; text-align: start; text-wrap: nowrap;&quot;&gt;%3CmxGraphModel%3E%3Croot%3E%3CmxCell%20id%3D%220%22%2F%3E%3CmxCell%20id%3D%221%22%20parent%3D%220%22%2F%3E%3CmxCell%20id%3D%222%22%20value%3D%22%22%20style%3D%22html%3D1%3BverticalAlign%3Dbottom%3BendArrow%3Dblock%3Bcurved%3D0%3Brounded%3D0%3B%22%20edge%3D%221%22%20parent%3D%221%22%3E%3CmxGeometry%20width%3D%2280%22%20relative%3D%221%22%20as%3D%22geometry%22%3E%3CmxPoint%20x%3D%221030%22%20y%3D%22630%22%20as%3D%22sourcePoint%22%2F%3E%3CmxPoint%20x%3D%221030%22%20y%3D%22568%22%20as%3D%22targetPoint%22%2F%3E%3C%2FmxGeometry%3E%3C%2FmxCell%3E%3C%2Froot%3E%3C%2FmxGraphModel%3E&lt;/span&gt;" style="swimlane;fontStyle=1;align=center;verticalAlign=top;childLayout=stackLayout;horizontal=1;startSize=26;horizontalStack=0;resizeParent=1;resizeParentMax=0;resizeLast=0;collapsible=1;marginBottom=0;whiteSpace=wrap;html=1;" parent="WIyWlLk6GJQsqaUBKTNV-1" vertex="1">
          <mxGeometry x="-560" y="850" width="370" height="268" as="geometry" />
        </mxCell>
        <mxCell id="hpsonxkA_LG1c_KUoqw7-312" value="+ Id: Guid&amp;nbsp; (key)" style="text;strokeColor=none;fillColor=none;align=left;verticalAlign=top;spacingLeft=4;spacingRight=4;overflow=hidden;rotatable=0;points=[[0,0.5],[1,0.5]];portConstraint=eastwest;whiteSpace=wrap;html=1;" parent="hpsonxkA_LG1c_KUoqw7-311" vertex="1">
          <mxGeometry y="26" width="370" height="26" as="geometry" />
        </mxCell>
        <mxCell id="hpsonxkA_LG1c_KUoqw7-313" value="+ UserId: Guid (foreighnkey)" style="text;strokeColor=none;fillColor=none;align=left;verticalAlign=top;spacingLeft=4;spacingRight=4;overflow=hidden;rotatable=0;points=[[0,0.5],[1,0.5]];portConstraint=eastwest;whiteSpace=wrap;html=1;" parent="hpsonxkA_LG1c_KUoqw7-311" vertex="1">
          <mxGeometry y="52" width="370" height="26" as="geometry" />
        </mxCell>
        <mxCell id="hpsonxkA_LG1c_KUoqw7-314" value="+ Subject: string" style="text;strokeColor=none;fillColor=none;align=left;verticalAlign=top;spacingLeft=4;spacingRight=4;overflow=hidden;rotatable=0;points=[[0,0.5],[1,0.5]];portConstraint=eastwest;whiteSpace=wrap;html=1;" parent="hpsonxkA_LG1c_KUoqw7-311" vertex="1">
          <mxGeometry y="78" width="370" height="26" as="geometry" />
        </mxCell>
        <mxCell id="hpsonxkA_LG1c_KUoqw7-315" value="+ Description: string" style="text;strokeColor=none;fillColor=none;align=left;verticalAlign=top;spacingLeft=4;spacingRight=4;overflow=hidden;rotatable=0;points=[[0,0.5],[1,0.5]];portConstraint=eastwest;whiteSpace=wrap;html=1;" parent="hpsonxkA_LG1c_KUoqw7-311" vertex="1">
          <mxGeometry y="104" width="370" height="26" as="geometry" />
        </mxCell>
        <mxCell id="hpsonxkA_LG1c_KUoqw7-316" value="+ TicketStatus: TicketStatus" style="text;strokeColor=none;fillColor=none;align=left;verticalAlign=top;spacingLeft=4;spacingRight=4;overflow=hidden;rotatable=0;points=[[0,0.5],[1,0.5]];portConstraint=eastwest;whiteSpace=wrap;html=1;" parent="hpsonxkA_LG1c_KUoqw7-311" vertex="1">
          <mxGeometry y="130" width="370" height="26" as="geometry" />
        </mxCell>
        <mxCell id="hpsonxkA_LG1c_KUoqw7-317" value="+ CreatedAt: DateTime" style="text;strokeColor=none;fillColor=none;align=left;verticalAlign=top;spacingLeft=4;spacingRight=4;overflow=hidden;rotatable=0;points=[[0,0.5],[1,0.5]];portConstraint=eastwest;whiteSpace=wrap;html=1;" parent="hpsonxkA_LG1c_KUoqw7-311" vertex="1">
          <mxGeometry y="156" width="370" height="26" as="geometry" />
        </mxCell>
        <mxCell id="hpsonxkA_LG1c_KUoqw7-321" value="+ UpdatedAt: DateTime?" style="text;strokeColor=none;fillColor=none;align=left;verticalAlign=top;spacingLeft=4;spacingRight=4;overflow=hidden;rotatable=0;points=[[0,0.5],[1,0.5]];portConstraint=eastwest;whiteSpace=wrap;html=1;" parent="hpsonxkA_LG1c_KUoqw7-311" vertex="1">
          <mxGeometry y="182" width="370" height="26" as="geometry" />
        </mxCell>
        <mxCell id="hpsonxkA_LG1c_KUoqw7-318" value="" style="line;strokeWidth=1;fillColor=none;align=left;verticalAlign=middle;spacingTop=-1;spacingLeft=3;spacingRight=3;rotatable=0;labelPosition=right;points=[];portConstraint=eastwest;strokeColor=inherit;" parent="hpsonxkA_LG1c_KUoqw7-311" vertex="1">
          <mxGeometry y="208" width="370" height="8" as="geometry" />
        </mxCell>
        <mxCell id="hpsonxkA_LG1c_KUoqw7-319" value="+ User: User (virtual)" style="text;strokeColor=none;fillColor=none;align=left;verticalAlign=top;spacingLeft=4;spacingRight=4;overflow=hidden;rotatable=0;points=[[0,0.5],[1,0.5]];portConstraint=eastwest;whiteSpace=wrap;html=1;" parent="hpsonxkA_LG1c_KUoqw7-311" vertex="1">
          <mxGeometry y="216" width="370" height="26" as="geometry" />
        </mxCell>
        <mxCell id="hpsonxkA_LG1c_KUoqw7-320" value="+&amp;nbsp;&lt;span style=&quot;text-align: center;&quot;&gt;TicketMessages&lt;/span&gt;: ICollection&amp;lt;&lt;span style=&quot;text-align: center;&quot;&gt;TicketMessage&lt;/span&gt;&amp;gt; (virtual)" style="text;strokeColor=none;fillColor=none;align=left;verticalAlign=top;spacingLeft=4;spacingRight=4;overflow=hidden;rotatable=0;points=[[0,0.5],[1,0.5]];portConstraint=eastwest;whiteSpace=wrap;html=1;" parent="hpsonxkA_LG1c_KUoqw7-311" vertex="1">
          <mxGeometry y="242" width="370" height="26" as="geometry" />
        </mxCell>
        <mxCell id="hpsonxkA_LG1c_KUoqw7-322" value="&lt;span style=&quot;font-weight: 700;&quot;&gt;Schema : UserProfile&lt;br&gt;&lt;/span&gt;&lt;span style=&quot;font-weight: 700;&quot;&gt;&lt;br&gt;User&amp;nbsp;: SoftDeletableEntity&lt;br&gt;&lt;/span&gt;" style="html=1;whiteSpace=wrap;" parent="WIyWlLk6GJQsqaUBKTNV-1" vertex="1">
          <mxGeometry x="-925" y="1250" width="240" height="74" as="geometry" />
        </mxCell>
        <mxCell id="hpsonxkA_LG1c_KUoqw7-323" value="" style="html=1;verticalAlign=bottom;endArrow=block;curved=0;rounded=0;" parent="WIyWlLk6GJQsqaUBKTNV-1" source="hpsonxkA_LG1c_KUoqw7-311" target="hpsonxkA_LG1c_KUoqw7-322" edge="1">
          <mxGeometry width="80" relative="1" as="geometry">
            <mxPoint x="-370" y="1160" as="sourcePoint" />
            <mxPoint x="-752.491749174917" y="1250" as="targetPoint" />
          </mxGeometry>
        </mxCell>
        <mxCell id="hpsonxkA_LG1c_KUoqw7-324" value="TicketMessage : SoftDeletableEntity&lt;span style=&quot;color: rgba(0, 0, 0, 0); font-family: monospace; font-size: 0px; font-weight: 400; text-align: start; text-wrap: nowrap;&quot;&gt;%3CmxGraphModel%3E%3Croot%3E%3CmxCell%20id%3D%220%22%2F%3E%3CmxCell%20id%3D%221%22%20parent%3D%220%22%2F%3E%3CmxCell%20id%3D%222%22%20value%3D%22%22%20style%3D%22html%3D1%3BverticalAlign%3Dbottom%3BendArrow%3Dblock%3Bcurved%3D0%3Brounded%3D0%3B%22%20edge%3D%221%22%20parent%3D%221%22%3E%3CmxGeometry%20width%3D%2280%22%20relative%3D%221%22%20as%3D%22geometry%22%3E%3CmxPoint%20x%3D%221030%22%20y%3D%22630%22%20as%3D%22sourcePoint%22%2F%3E%3CmxPoint%20x%3D%221030%22%20y%3D%22568%22%20as%3D%22targetPoint%22%2F%3E%3C%2FmxGeometry%3E%3C%2FmxCell%3E%3C%2Froot%3E%3C%2FmxGraphModel%3E&lt;/span&gt;&lt;span style=&quot;color: rgba(0, 0, 0, 0); font-family: monospace; font-size: 0px; font-weight: 400; text-align: start; text-wrap: nowrap;&quot;&gt;%3CmxGraphModel%3E%3Croot%3E%3CmxCell%20id%3D%220%22%2F%3E%3CmxCell%20id%3D%221%22%20parent%3D%220%22%2F%3E%3CmxCell%20id%3D%222%22%20value%3D%22%22%20style%3D%22html%3D1%3BverticalAlign%3Dbottom%3BendArrow%3Dblock%3Bcurved%3D0%3Brounded%3D0%3B%22%20edge%3D%221%22%20parent%3D%221%22%3E%3CmxGeometry%20width%3D%2280%22%20relative%3D%221%22%20as%3D%22geometry%22%3E%3CmxPoint%20x%3D%221030%22%20y%3D%22630%22%20as%3D%22sourcePoint%22%2F%3E%3CmxPoint%20x%3D%221030%22%20y%3D%22568%22%20as%3D%22targetPoint%22%2F%3E%3C%2FmxGeometry%3E%3C%2FmxCell%3E%3C%2Froot%3E%3C%2FmxGraphModel%3E&lt;/span&gt;" style="swimlane;fontStyle=1;align=center;verticalAlign=top;childLayout=stackLayout;horizontal=1;startSize=26;horizontalStack=0;resizeParent=1;resizeParentMax=0;resizeLast=0;collapsible=1;marginBottom=0;whiteSpace=wrap;html=1;" parent="WIyWlLk6GJQsqaUBKTNV-1" vertex="1">
          <mxGeometry x="-990" y="850" width="370" height="268" as="geometry" />
        </mxCell>
        <mxCell id="hpsonxkA_LG1c_KUoqw7-325" value="+ Id: Guid&amp;nbsp; (key)" style="text;strokeColor=none;fillColor=none;align=left;verticalAlign=top;spacingLeft=4;spacingRight=4;overflow=hidden;rotatable=0;points=[[0,0.5],[1,0.5]];portConstraint=eastwest;whiteSpace=wrap;html=1;" parent="hpsonxkA_LG1c_KUoqw7-324" vertex="1">
          <mxGeometry y="26" width="370" height="26" as="geometry" />
        </mxCell>
        <mxCell id="hpsonxkA_LG1c_KUoqw7-326" value="+ SupportTicketId: Guid (foreighnkey)" style="text;strokeColor=none;fillColor=none;align=left;verticalAlign=top;spacingLeft=4;spacingRight=4;overflow=hidden;rotatable=0;points=[[0,0.5],[1,0.5]];portConstraint=eastwest;whiteSpace=wrap;html=1;" parent="hpsonxkA_LG1c_KUoqw7-324" vertex="1">
          <mxGeometry y="52" width="370" height="26" as="geometry" />
        </mxCell>
        <mxCell id="hpsonxkA_LG1c_KUoqw7-335" value="+ SenderId: Guid (foreighnkey)" style="text;strokeColor=none;fillColor=none;align=left;verticalAlign=top;spacingLeft=4;spacingRight=4;overflow=hidden;rotatable=0;points=[[0,0.5],[1,0.5]];portConstraint=eastwest;whiteSpace=wrap;html=1;" parent="hpsonxkA_LG1c_KUoqw7-324" vertex="1">
          <mxGeometry y="78" width="370" height="26" as="geometry" />
        </mxCell>
        <mxCell id="hpsonxkA_LG1c_KUoqw7-327" value="+ Subject: string" style="text;strokeColor=none;fillColor=none;align=left;verticalAlign=top;spacingLeft=4;spacingRight=4;overflow=hidden;rotatable=0;points=[[0,0.5],[1,0.5]];portConstraint=eastwest;whiteSpace=wrap;html=1;" parent="hpsonxkA_LG1c_KUoqw7-324" vertex="1">
          <mxGeometry y="104" width="370" height="26" as="geometry" />
        </mxCell>
        <mxCell id="hpsonxkA_LG1c_KUoqw7-328" value="+ IsSupportAgent: bool" style="text;strokeColor=none;fillColor=none;align=left;verticalAlign=top;spacingLeft=4;spacingRight=4;overflow=hidden;rotatable=0;points=[[0,0.5],[1,0.5]];portConstraint=eastwest;whiteSpace=wrap;html=1;" parent="hpsonxkA_LG1c_KUoqw7-324" vertex="1">
          <mxGeometry y="130" width="370" height="26" as="geometry" />
        </mxCell>
        <mxCell id="hpsonxkA_LG1c_KUoqw7-329" value="+ Message: string" style="text;strokeColor=none;fillColor=none;align=left;verticalAlign=top;spacingLeft=4;spacingRight=4;overflow=hidden;rotatable=0;points=[[0,0.5],[1,0.5]];portConstraint=eastwest;whiteSpace=wrap;html=1;" parent="hpsonxkA_LG1c_KUoqw7-324" vertex="1">
          <mxGeometry y="156" width="370" height="26" as="geometry" />
        </mxCell>
        <mxCell id="hpsonxkA_LG1c_KUoqw7-330" value="+ Sent: DateTime" style="text;strokeColor=none;fillColor=none;align=left;verticalAlign=top;spacingLeft=4;spacingRight=4;overflow=hidden;rotatable=0;points=[[0,0.5],[1,0.5]];portConstraint=eastwest;whiteSpace=wrap;html=1;" parent="hpsonxkA_LG1c_KUoqw7-324" vertex="1">
          <mxGeometry y="182" width="370" height="26" as="geometry" />
        </mxCell>
        <mxCell id="hpsonxkA_LG1c_KUoqw7-332" value="" style="line;strokeWidth=1;fillColor=none;align=left;verticalAlign=middle;spacingTop=-1;spacingLeft=3;spacingRight=3;rotatable=0;labelPosition=right;points=[];portConstraint=eastwest;strokeColor=inherit;" parent="hpsonxkA_LG1c_KUoqw7-324" vertex="1">
          <mxGeometry y="208" width="370" height="8" as="geometry" />
        </mxCell>
        <mxCell id="hpsonxkA_LG1c_KUoqw7-333" value="+ SupportTicket: SupportTicket&amp;nbsp;(virtual)" style="text;strokeColor=none;fillColor=none;align=left;verticalAlign=top;spacingLeft=4;spacingRight=4;overflow=hidden;rotatable=0;points=[[0,0.5],[1,0.5]];portConstraint=eastwest;whiteSpace=wrap;html=1;" parent="hpsonxkA_LG1c_KUoqw7-324" vertex="1">
          <mxGeometry y="216" width="370" height="26" as="geometry" />
        </mxCell>
        <mxCell id="hpsonxkA_LG1c_KUoqw7-336" value="+ Sender: User (virtual)" style="text;strokeColor=none;fillColor=none;align=left;verticalAlign=top;spacingLeft=4;spacingRight=4;overflow=hidden;rotatable=0;points=[[0,0.5],[1,0.5]];portConstraint=eastwest;whiteSpace=wrap;html=1;" parent="hpsonxkA_LG1c_KUoqw7-324" vertex="1">
          <mxGeometry y="242" width="370" height="26" as="geometry" />
        </mxCell>
        <mxCell id="hpsonxkA_LG1c_KUoqw7-337" value="" style="html=1;verticalAlign=bottom;endArrow=block;curved=0;rounded=0;" parent="WIyWlLk6GJQsqaUBKTNV-1" source="hpsonxkA_LG1c_KUoqw7-324" target="hpsonxkA_LG1c_KUoqw7-322" edge="1">
          <mxGeometry width="80" relative="1" as="geometry">
            <mxPoint x="-220" y="1068" as="sourcePoint" />
            <mxPoint x="-805" y="1250" as="targetPoint" />
          </mxGeometry>
        </mxCell>
        <mxCell id="hpsonxkA_LG1c_KUoqw7-338" value="" style="html=1;verticalAlign=bottom;endArrow=block;curved=0;rounded=0;" parent="WIyWlLk6GJQsqaUBKTNV-1" source="hpsonxkA_LG1c_KUoqw7-324" target="hpsonxkA_LG1c_KUoqw7-311" edge="1">
          <mxGeometry width="80" relative="1" as="geometry">
            <mxPoint x="-220" y="1299" as="sourcePoint" />
            <mxPoint x="-31" y="1212" as="targetPoint" />
          </mxGeometry>
        </mxCell>
        <mxCell id="hpsonxkA_LG1c_KUoqw7-339" value="FAQ : SoftDeletableEntity&lt;span style=&quot;color: rgba(0, 0, 0, 0); font-family: monospace; font-size: 0px; font-weight: 400; text-align: start; text-wrap: nowrap;&quot;&gt;%3CmxGraphModel%3E%3Croot%3E%3CmxCell%20id%3D%220%22%2F%3E%3CmxCell%20id%3D%221%22%20parent%3D%220%22%2F%3E%3CmxCell%20id%3D%222%22%20value%3D%22%22%20style%3D%22html%3D1%3BverticalAlign%3Dbottom%3BendArrow%3Dblock%3Bcurved%3D0%3Brounded%3D0%3B%22%20edge%3D%221%22%20parent%3D%221%22%3E%3CmxGeometry%20width%3D%2280%22%20relative%3D%221%22%20as%3D%22geometry%22%3E%3CmxPoint%20x%3D%221030%22%20y%3D%22630%22%20as%3D%22sourcePoint%22%2F%3E%3CmxPoint%20x%3D%221030%22%20y%3D%22568%22%20as%3D%22targetPoint%22%2F%3E%3C%2FmxGeometry%3E%3C%2FmxCell%3E%3C%2Froot%3E%3C%2FmxGraphModel%3E&lt;/span&gt;&lt;span style=&quot;color: rgba(0, 0, 0, 0); font-family: monospace; font-size: 0px; font-weight: 400; text-align: start; text-wrap: nowrap;&quot;&gt;%3CmxGraphModel%3E%3Croot%3E%3CmxCell%20id%3D%220%22%2F%3E%3CmxCell%20id%3D%221%22%20parent%3D%220%22%2F%3E%3CmxCell%20id%3D%222%22%20value%3D%22%22%20style%3D%22html%3D1%3BverticalAlign%3Dbottom%3BendArrow%3Dblock%3Bcurved%3D0%3Brounded%3D0%3B%22%20edge%3D%221%22%20parent%3D%221%22%3E%3CmxGeometry%20width%3D%2280%22%20relative%3D%221%22%20as%3D%22geometry%22%3E%3CmxPoint%20x%3D%221030%22%20y%3D%22630%22%20as%3D%22sourcePoint%22%2F%3E%3CmxPoint%20x%3D%221030%22%20y%3D%22568%22%20as%3D%22targetPoint%22%2F%3E%3C%2FmxGeometry%3E%3C%2FmxCell%3E%3C%2Froot%3E%3C%2FmxGraphModel%3E&lt;/span&gt;" style="swimlane;fontStyle=1;align=center;verticalAlign=top;childLayout=stackLayout;horizontal=1;startSize=26;horizontalStack=0;resizeParent=1;resizeParentMax=0;resizeLast=0;collapsible=1;marginBottom=0;whiteSpace=wrap;html=1;" parent="WIyWlLk6GJQsqaUBKTNV-1" vertex="1">
          <mxGeometry x="-1425" y="850" width="370" height="138" as="geometry" />
        </mxCell>
        <mxCell id="hpsonxkA_LG1c_KUoqw7-340" value="+ Id: Guid&amp;nbsp; (key)" style="text;strokeColor=none;fillColor=none;align=left;verticalAlign=top;spacingLeft=4;spacingRight=4;overflow=hidden;rotatable=0;points=[[0,0.5],[1,0.5]];portConstraint=eastwest;whiteSpace=wrap;html=1;" parent="hpsonxkA_LG1c_KUoqw7-339" vertex="1">
          <mxGeometry y="26" width="370" height="26" as="geometry" />
        </mxCell>
        <mxCell id="hpsonxkA_LG1c_KUoqw7-341" value="+ Question: string" style="text;strokeColor=none;fillColor=none;align=left;verticalAlign=top;spacingLeft=4;spacingRight=4;overflow=hidden;rotatable=0;points=[[0,0.5],[1,0.5]];portConstraint=eastwest;whiteSpace=wrap;html=1;" parent="hpsonxkA_LG1c_KUoqw7-339" vertex="1">
          <mxGeometry y="52" width="370" height="26" as="geometry" />
        </mxCell>
        <mxCell id="hpsonxkA_LG1c_KUoqw7-342" value="+ Answer: string" style="text;strokeColor=none;fillColor=none;align=left;verticalAlign=top;spacingLeft=4;spacingRight=4;overflow=hidden;rotatable=0;points=[[0,0.5],[1,0.5]];portConstraint=eastwest;whiteSpace=wrap;html=1;" parent="hpsonxkA_LG1c_KUoqw7-339" vertex="1">
          <mxGeometry y="78" width="370" height="26" as="geometry" />
        </mxCell>
        <mxCell id="hpsonxkA_LG1c_KUoqw7-343" value="+ Order: int" style="text;strokeColor=none;fillColor=none;align=left;verticalAlign=top;spacingLeft=4;spacingRight=4;overflow=hidden;rotatable=0;points=[[0,0.5],[1,0.5]];portConstraint=eastwest;whiteSpace=wrap;html=1;" parent="hpsonxkA_LG1c_KUoqw7-339" vertex="1">
          <mxGeometry y="104" width="370" height="26" as="geometry" />
        </mxCell>
        <mxCell id="hpsonxkA_LG1c_KUoqw7-347" value="" style="line;strokeWidth=1;fillColor=none;align=left;verticalAlign=middle;spacingTop=-1;spacingLeft=3;spacingRight=3;rotatable=0;labelPosition=right;points=[];portConstraint=eastwest;strokeColor=inherit;" parent="hpsonxkA_LG1c_KUoqw7-339" vertex="1">
          <mxGeometry y="130" width="370" height="8" as="geometry" />
        </mxCell>
        <mxCell id="hpsonxkA_LG1c_KUoqw7-352" value="" style="rounded=0;whiteSpace=wrap;html=1;fillColor=light-dark(#FFFFFF,#000000);" parent="WIyWlLk6GJQsqaUBKTNV-1" vertex="1">
          <mxGeometry x="-1450" y="1380" width="1310" height="680" as="geometry" />
        </mxCell>
        <mxCell id="hpsonxkA_LG1c_KUoqw7-353" value="&lt;font style=&quot;font-size: 36px;&quot;&gt;Schema : Analytics&lt;/font&gt;" style="text;html=1;align=center;verticalAlign=middle;whiteSpace=wrap;rounded=0;" parent="WIyWlLk6GJQsqaUBKTNV-1" vertex="1">
          <mxGeometry x="-1010" y="1420" width="390" height="60" as="geometry" />
        </mxCell>
        <mxCell id="hpsonxkA_LG1c_KUoqw7-354" value="AnalyticsEvent" style="swimlane;fontStyle=1;align=center;verticalAlign=top;childLayout=stackLayout;horizontal=1;startSize=26;horizontalStack=0;resizeParent=1;resizeParentMax=0;resizeLast=0;collapsible=1;marginBottom=0;whiteSpace=wrap;html=1;" parent="WIyWlLk6GJQsqaUBKTNV-1" vertex="1">
          <mxGeometry x="-1410" y="1501" width="370" height="190" as="geometry" />
        </mxCell>
        <mxCell id="hpsonxkA_LG1c_KUoqw7-355" value="+ Id: Guid&amp;nbsp; (key)" style="text;strokeColor=none;fillColor=none;align=left;verticalAlign=top;spacingLeft=4;spacingRight=4;overflow=hidden;rotatable=0;points=[[0,0.5],[1,0.5]];portConstraint=eastwest;whiteSpace=wrap;html=1;" parent="hpsonxkA_LG1c_KUoqw7-354" vertex="1">
          <mxGeometry y="26" width="370" height="26" as="geometry" />
        </mxCell>
        <mxCell id="hpsonxkA_LG1c_KUoqw7-356" value="+ EventType: AnalyticsEventType&amp;nbsp;" style="text;strokeColor=none;fillColor=none;align=left;verticalAlign=top;spacingLeft=4;spacingRight=4;overflow=hidden;rotatable=0;points=[[0,0.5],[1,0.5]];portConstraint=eastwest;whiteSpace=wrap;html=1;" parent="hpsonxkA_LG1c_KUoqw7-354" vertex="1">
          <mxGeometry y="52" width="370" height="26" as="geometry" />
        </mxCell>
        <mxCell id="hpsonxkA_LG1c_KUoqw7-357" value="+ UserId: Guid? (foreighnkey)" style="text;strokeColor=none;fillColor=none;align=left;verticalAlign=top;spacingLeft=4;spacingRight=4;overflow=hidden;rotatable=0;points=[[0,0.5],[1,0.5]];portConstraint=eastwest;whiteSpace=wrap;html=1;" parent="hpsonxkA_LG1c_KUoqw7-354" vertex="1">
          <mxGeometry y="78" width="370" height="26" as="geometry" />
        </mxCell>
        <mxCell id="hpsonxkA_LG1c_KUoqw7-361" value="+ Timestamp: DateTime" style="text;strokeColor=none;fillColor=none;align=left;verticalAlign=top;spacingLeft=4;spacingRight=4;overflow=hidden;rotatable=0;points=[[0,0.5],[1,0.5]];portConstraint=eastwest;whiteSpace=wrap;html=1;" parent="hpsonxkA_LG1c_KUoqw7-354" vertex="1">
          <mxGeometry y="104" width="370" height="26" as="geometry" />
        </mxCell>
        <mxCell id="hpsonxkA_LG1c_KUoqw7-358" value="+ Metadata: string" style="text;strokeColor=none;fillColor=none;align=left;verticalAlign=top;spacingLeft=4;spacingRight=4;overflow=hidden;rotatable=0;points=[[0,0.5],[1,0.5]];portConstraint=eastwest;whiteSpace=wrap;html=1;" parent="hpsonxkA_LG1c_KUoqw7-354" vertex="1">
          <mxGeometry y="130" width="370" height="26" as="geometry" />
        </mxCell>
        <mxCell id="hpsonxkA_LG1c_KUoqw7-362" value="" style="line;strokeWidth=1;fillColor=none;align=left;verticalAlign=middle;spacingTop=-1;spacingLeft=3;spacingRight=3;rotatable=0;labelPosition=right;points=[];portConstraint=eastwest;strokeColor=inherit;" parent="hpsonxkA_LG1c_KUoqw7-354" vertex="1">
          <mxGeometry y="156" width="370" height="8" as="geometry" />
        </mxCell>
        <mxCell id="hpsonxkA_LG1c_KUoqw7-364" value="+ User: User? (virtual)" style="text;strokeColor=none;fillColor=none;align=left;verticalAlign=top;spacingLeft=4;spacingRight=4;overflow=hidden;rotatable=0;points=[[0,0.5],[1,0.5]];portConstraint=eastwest;whiteSpace=wrap;html=1;" parent="hpsonxkA_LG1c_KUoqw7-354" vertex="1">
          <mxGeometry y="164" width="370" height="26" as="geometry" />
        </mxCell>
        <mxCell id="hpsonxkA_LG1c_KUoqw7-365" value="AnalyticsSession" style="swimlane;fontStyle=1;align=center;verticalAlign=top;childLayout=stackLayout;horizontal=1;startSize=26;horizontalStack=0;resizeParent=1;resizeParentMax=0;resizeLast=0;collapsible=1;marginBottom=0;whiteSpace=wrap;html=1;" parent="WIyWlLk6GJQsqaUBKTNV-1" vertex="1">
          <mxGeometry x="-990" y="1501" width="370" height="190" as="geometry" />
        </mxCell>
        <mxCell id="hpsonxkA_LG1c_KUoqw7-366" value="+ Id: Guid&amp;nbsp; (key)" style="text;strokeColor=none;fillColor=none;align=left;verticalAlign=top;spacingLeft=4;spacingRight=4;overflow=hidden;rotatable=0;points=[[0,0.5],[1,0.5]];portConstraint=eastwest;whiteSpace=wrap;html=1;" parent="hpsonxkA_LG1c_KUoqw7-365" vertex="1">
          <mxGeometry y="26" width="370" height="26" as="geometry" />
        </mxCell>
        <mxCell id="hpsonxkA_LG1c_KUoqw7-368" value="+ UserId: Guid? (foreighnkey)" style="text;strokeColor=none;fillColor=none;align=left;verticalAlign=top;spacingLeft=4;spacingRight=4;overflow=hidden;rotatable=0;points=[[0,0.5],[1,0.5]];portConstraint=eastwest;whiteSpace=wrap;html=1;" parent="hpsonxkA_LG1c_KUoqw7-365" vertex="1">
          <mxGeometry y="52" width="370" height="26" as="geometry" />
        </mxCell>
        <mxCell id="hpsonxkA_LG1c_KUoqw7-369" value="+ StartTime: DateTime" style="text;strokeColor=none;fillColor=none;align=left;verticalAlign=top;spacingLeft=4;spacingRight=4;overflow=hidden;rotatable=0;points=[[0,0.5],[1,0.5]];portConstraint=eastwest;whiteSpace=wrap;html=1;" parent="hpsonxkA_LG1c_KUoqw7-365" vertex="1">
          <mxGeometry y="78" width="370" height="26" as="geometry" />
        </mxCell>
        <mxCell id="hpsonxkA_LG1c_KUoqw7-373" value="+ EndTime: DateTime?" style="text;strokeColor=none;fillColor=none;align=left;verticalAlign=top;spacingLeft=4;spacingRight=4;overflow=hidden;rotatable=0;points=[[0,0.5],[1,0.5]];portConstraint=eastwest;whiteSpace=wrap;html=1;" parent="hpsonxkA_LG1c_KUoqw7-365" vertex="1">
          <mxGeometry y="104" width="370" height="26" as="geometry" />
        </mxCell>
        <mxCell id="hpsonxkA_LG1c_KUoqw7-370" value="+ Metadata: string" style="text;strokeColor=none;fillColor=none;align=left;verticalAlign=top;spacingLeft=4;spacingRight=4;overflow=hidden;rotatable=0;points=[[0,0.5],[1,0.5]];portConstraint=eastwest;whiteSpace=wrap;html=1;" parent="hpsonxkA_LG1c_KUoqw7-365" vertex="1">
          <mxGeometry y="130" width="370" height="26" as="geometry" />
        </mxCell>
        <mxCell id="hpsonxkA_LG1c_KUoqw7-371" value="" style="line;strokeWidth=1;fillColor=none;align=left;verticalAlign=middle;spacingTop=-1;spacingLeft=3;spacingRight=3;rotatable=0;labelPosition=right;points=[];portConstraint=eastwest;strokeColor=inherit;" parent="hpsonxkA_LG1c_KUoqw7-365" vertex="1">
          <mxGeometry y="156" width="370" height="8" as="geometry" />
        </mxCell>
        <mxCell id="hpsonxkA_LG1c_KUoqw7-372" value="+ User: User? (virtual)" style="text;strokeColor=none;fillColor=none;align=left;verticalAlign=top;spacingLeft=4;spacingRight=4;overflow=hidden;rotatable=0;points=[[0,0.5],[1,0.5]];portConstraint=eastwest;whiteSpace=wrap;html=1;" parent="hpsonxkA_LG1c_KUoqw7-365" vertex="1">
          <mxGeometry y="164" width="370" height="26" as="geometry" />
        </mxCell>
        <mxCell id="hpsonxkA_LG1c_KUoqw7-374" value="AnalyticsAggregate" style="swimlane;fontStyle=1;align=center;verticalAlign=top;childLayout=stackLayout;horizontal=1;startSize=26;horizontalStack=0;resizeParent=1;resizeParentMax=0;resizeLast=0;collapsible=1;marginBottom=0;whiteSpace=wrap;html=1;" parent="WIyWlLk6GJQsqaUBKTNV-1" vertex="1">
          <mxGeometry x="-990" y="1740" width="370" height="138" as="geometry" />
        </mxCell>
        <mxCell id="hpsonxkA_LG1c_KUoqw7-375" value="+ Id: Guid&amp;nbsp; (key)" style="text;strokeColor=none;fillColor=none;align=left;verticalAlign=top;spacingLeft=4;spacingRight=4;overflow=hidden;rotatable=0;points=[[0,0.5],[1,0.5]];portConstraint=eastwest;whiteSpace=wrap;html=1;" parent="hpsonxkA_LG1c_KUoqw7-374" vertex="1">
          <mxGeometry y="26" width="370" height="26" as="geometry" />
        </mxCell>
        <mxCell id="hpsonxkA_LG1c_KUoqw7-377" value="+ Date: DateTime" style="text;strokeColor=none;fillColor=none;align=left;verticalAlign=top;spacingLeft=4;spacingRight=4;overflow=hidden;rotatable=0;points=[[0,0.5],[1,0.5]];portConstraint=eastwest;whiteSpace=wrap;html=1;" parent="hpsonxkA_LG1c_KUoqw7-374" vertex="1">
          <mxGeometry y="52" width="370" height="26" as="geometry" />
        </mxCell>
        <mxCell id="hpsonxkA_LG1c_KUoqw7-376" value="+ MetricName: string" style="text;strokeColor=none;fillColor=none;align=left;verticalAlign=top;spacingLeft=4;spacingRight=4;overflow=hidden;rotatable=0;points=[[0,0.5],[1,0.5]];portConstraint=eastwest;whiteSpace=wrap;html=1;" parent="hpsonxkA_LG1c_KUoqw7-374" vertex="1">
          <mxGeometry y="78" width="370" height="26" as="geometry" />
        </mxCell>
        <mxCell id="hpsonxkA_LG1c_KUoqw7-378" value="+ Value: decimal" style="text;strokeColor=none;fillColor=none;align=left;verticalAlign=top;spacingLeft=4;spacingRight=4;overflow=hidden;rotatable=0;points=[[0,0.5],[1,0.5]];portConstraint=eastwest;whiteSpace=wrap;html=1;" parent="hpsonxkA_LG1c_KUoqw7-374" vertex="1">
          <mxGeometry y="104" width="370" height="26" as="geometry" />
        </mxCell>
        <mxCell id="hpsonxkA_LG1c_KUoqw7-380" value="" style="line;strokeWidth=1;fillColor=none;align=left;verticalAlign=middle;spacingTop=-1;spacingLeft=3;spacingRight=3;rotatable=0;labelPosition=right;points=[];portConstraint=eastwest;strokeColor=inherit;" parent="hpsonxkA_LG1c_KUoqw7-374" vertex="1">
          <mxGeometry y="130" width="370" height="8" as="geometry" />
        </mxCell>
        <mxCell id="hpsonxkA_LG1c_KUoqw7-383" value="AuditLog" style="swimlane;fontStyle=1;align=center;verticalAlign=top;childLayout=stackLayout;horizontal=1;startSize=26;horizontalStack=0;resizeParent=1;resizeParentMax=0;resizeLast=0;collapsible=1;marginBottom=0;whiteSpace=wrap;html=1;" parent="WIyWlLk6GJQsqaUBKTNV-1" vertex="1">
          <mxGeometry x="-570" y="1501" width="370" height="242" as="geometry" />
        </mxCell>
        <mxCell id="hpsonxkA_LG1c_KUoqw7-384" value="+ Id: Guid&amp;nbsp; (key)" style="text;strokeColor=none;fillColor=none;align=left;verticalAlign=top;spacingLeft=4;spacingRight=4;overflow=hidden;rotatable=0;points=[[0,0.5],[1,0.5]];portConstraint=eastwest;whiteSpace=wrap;html=1;" parent="hpsonxkA_LG1c_KUoqw7-383" vertex="1">
          <mxGeometry y="26" width="370" height="26" as="geometry" />
        </mxCell>
        <mxCell id="hpsonxkA_LG1c_KUoqw7-391" value="+ EntityType: AuditEntityType" style="text;strokeColor=none;fillColor=none;align=left;verticalAlign=top;spacingLeft=4;spacingRight=4;overflow=hidden;rotatable=0;points=[[0,0.5],[1,0.5]];portConstraint=eastwest;whiteSpace=wrap;html=1;" parent="hpsonxkA_LG1c_KUoqw7-383" vertex="1">
          <mxGeometry y="52" width="370" height="26" as="geometry" />
        </mxCell>
        <mxCell id="hpsonxkA_LG1c_KUoqw7-392" value="+ EntityId: Guid (foreighnkey)" style="text;strokeColor=none;fillColor=none;align=left;verticalAlign=top;spacingLeft=4;spacingRight=4;overflow=hidden;rotatable=0;points=[[0,0.5],[1,0.5]];portConstraint=eastwest;whiteSpace=wrap;html=1;" parent="hpsonxkA_LG1c_KUoqw7-383" vertex="1">
          <mxGeometry y="78" width="370" height="26" as="geometry" />
        </mxCell>
        <mxCell id="hpsonxkA_LG1c_KUoqw7-386" value="+ ActionType: AuditActionType" style="text;strokeColor=none;fillColor=none;align=left;verticalAlign=top;spacingLeft=4;spacingRight=4;overflow=hidden;rotatable=0;points=[[0,0.5],[1,0.5]];portConstraint=eastwest;whiteSpace=wrap;html=1;" parent="hpsonxkA_LG1c_KUoqw7-383" vertex="1">
          <mxGeometry y="104" width="370" height="26" as="geometry" />
        </mxCell>
        <mxCell id="hpsonxkA_LG1c_KUoqw7-385" value="+ UserId: Guid? (foreighnkey)" style="text;strokeColor=none;fillColor=none;align=left;verticalAlign=top;spacingLeft=4;spacingRight=4;overflow=hidden;rotatable=0;points=[[0,0.5],[1,0.5]];portConstraint=eastwest;whiteSpace=wrap;html=1;" parent="hpsonxkA_LG1c_KUoqw7-383" vertex="1">
          <mxGeometry y="130" width="370" height="26" as="geometry" />
        </mxCell>
        <mxCell id="hpsonxkA_LG1c_KUoqw7-387" value="+ ActionDate: DateTime" style="text;strokeColor=none;fillColor=none;align=left;verticalAlign=top;spacingLeft=4;spacingRight=4;overflow=hidden;rotatable=0;points=[[0,0.5],[1,0.5]];portConstraint=eastwest;whiteSpace=wrap;html=1;" parent="hpsonxkA_LG1c_KUoqw7-383" vertex="1">
          <mxGeometry y="156" width="370" height="26" as="geometry" />
        </mxCell>
        <mxCell id="hpsonxkA_LG1c_KUoqw7-388" value="+ Details: string" style="text;strokeColor=none;fillColor=none;align=left;verticalAlign=top;spacingLeft=4;spacingRight=4;overflow=hidden;rotatable=0;points=[[0,0.5],[1,0.5]];portConstraint=eastwest;whiteSpace=wrap;html=1;" parent="hpsonxkA_LG1c_KUoqw7-383" vertex="1">
          <mxGeometry y="182" width="370" height="26" as="geometry" />
        </mxCell>
        <mxCell id="hpsonxkA_LG1c_KUoqw7-389" value="" style="line;strokeWidth=1;fillColor=none;align=left;verticalAlign=middle;spacingTop=-1;spacingLeft=3;spacingRight=3;rotatable=0;labelPosition=right;points=[];portConstraint=eastwest;strokeColor=inherit;" parent="hpsonxkA_LG1c_KUoqw7-383" vertex="1">
          <mxGeometry y="208" width="370" height="8" as="geometry" />
        </mxCell>
        <mxCell id="hpsonxkA_LG1c_KUoqw7-390" value="+ User: User? (virtual)" style="text;strokeColor=none;fillColor=none;align=left;verticalAlign=top;spacingLeft=4;spacingRight=4;overflow=hidden;rotatable=0;points=[[0,0.5],[1,0.5]];portConstraint=eastwest;whiteSpace=wrap;html=1;" parent="hpsonxkA_LG1c_KUoqw7-383" vertex="1">
          <mxGeometry y="216" width="370" height="26" as="geometry" />
        </mxCell>
        <mxCell id="hpsonxkA_LG1c_KUoqw7-393" value="&lt;span style=&quot;font-weight: 700;&quot;&gt;Schema : UserProfile&lt;br&gt;&lt;/span&gt;&lt;span style=&quot;font-weight: 700;&quot;&gt;&lt;br&gt;User&amp;nbsp;: SoftDeletableEntity&lt;br&gt;&lt;/span&gt;" style="html=1;whiteSpace=wrap;" parent="WIyWlLk6GJQsqaUBKTNV-1" vertex="1">
          <mxGeometry x="-505" y="1240" width="240" height="74" as="geometry" />
        </mxCell>
        <mxCell id="hpsonxkA_LG1c_KUoqw7-395" value="" style="html=1;verticalAlign=bottom;endArrow=block;curved=0;rounded=0;" parent="WIyWlLk6GJQsqaUBKTNV-1" source="hpsonxkA_LG1c_KUoqw7-383" target="hpsonxkA_LG1c_KUoqw7-393" edge="1">
          <mxGeometry width="80" relative="1" as="geometry">
            <mxPoint x="10" y="1446" as="sourcePoint" />
            <mxPoint x="10" y="1324" as="targetPoint" />
          </mxGeometry>
        </mxCell>
        <mxCell id="xZ0Wn-mFjBRzZuzrVX0f-2" value="" style="html=1;verticalAlign=bottom;endArrow=block;curved=0;rounded=0;" parent="WIyWlLk6GJQsqaUBKTNV-1" source="hpsonxkA_LG1c_KUoqw7-158" target="hpsonxkA_LG1c_KUoqw7-248" edge="1">
          <mxGeometry width="80" relative="1" as="geometry">
            <mxPoint x="1610" y="1248" as="sourcePoint" />
            <mxPoint x="1610" y="1400" as="targetPoint" />
          </mxGeometry>
        </mxCell>
        <mxCell id="Ge20OjVHV2di81C7ZLqA-0" value="GameTag" style="swimlane;fontStyle=1;align=center;verticalAlign=top;childLayout=stackLayout;horizontal=1;startSize=26;horizontalStack=0;resizeParent=1;resizeParentMax=0;resizeLast=0;collapsible=1;marginBottom=0;whiteSpace=wrap;html=1;" vertex="1" parent="WIyWlLk6GJQsqaUBKTNV-1">
          <mxGeometry x="445" y="-168" width="330" height="164" as="geometry" />
        </mxCell>
        <mxCell id="Ge20OjVHV2di81C7ZLqA-1" value="+ Id: Guid" style="text;strokeColor=none;fillColor=none;align=left;verticalAlign=top;spacingLeft=4;spacingRight=4;overflow=hidden;rotatable=0;points=[[0,0.5],[1,0.5]];portConstraint=eastwest;whiteSpace=wrap;html=1;" vertex="1" parent="Ge20OjVHV2di81C7ZLqA-0">
          <mxGeometry y="26" width="330" height="26" as="geometry" />
        </mxCell>
        <mxCell id="Ge20OjVHV2di81C7ZLqA-3" value="+ GameId: Guid" style="text;strokeColor=none;fillColor=none;align=left;verticalAlign=top;spacingLeft=4;spacingRight=4;overflow=hidden;rotatable=0;points=[[0,0.5],[1,0.5]];portConstraint=eastwest;whiteSpace=wrap;html=1;" vertex="1" parent="Ge20OjVHV2di81C7ZLqA-0">
          <mxGeometry y="52" width="330" height="26" as="geometry" />
        </mxCell>
        <mxCell id="Ge20OjVHV2di81C7ZLqA-8" value="+ TagId: Guid" style="text;strokeColor=none;fillColor=none;align=left;verticalAlign=top;spacingLeft=4;spacingRight=4;overflow=hidden;rotatable=0;points=[[0,0.5],[1,0.5]];portConstraint=eastwest;whiteSpace=wrap;html=1;" vertex="1" parent="Ge20OjVHV2di81C7ZLqA-0">
          <mxGeometry y="78" width="330" height="26" as="geometry" />
        </mxCell>
        <mxCell id="Ge20OjVHV2di81C7ZLqA-4" value="" style="line;strokeWidth=1;fillColor=none;align=left;verticalAlign=middle;spacingTop=-1;spacingLeft=3;spacingRight=3;rotatable=0;labelPosition=right;points=[];portConstraint=eastwest;strokeColor=inherit;" vertex="1" parent="Ge20OjVHV2di81C7ZLqA-0">
          <mxGeometry y="104" width="330" height="8" as="geometry" />
        </mxCell>
        <mxCell id="Ge20OjVHV2di81C7ZLqA-5" value="+ Game: Game (virtual)" style="text;strokeColor=none;fillColor=none;align=left;verticalAlign=top;spacingLeft=4;spacingRight=4;overflow=hidden;rotatable=0;points=[[0,0.5],[1,0.5]];portConstraint=eastwest;whiteSpace=wrap;html=1;" vertex="1" parent="Ge20OjVHV2di81C7ZLqA-0">
          <mxGeometry y="112" width="330" height="26" as="geometry" />
        </mxCell>
        <mxCell id="Ge20OjVHV2di81C7ZLqA-9" value="+ Tag: Tag (virtual)" style="text;strokeColor=none;fillColor=none;align=left;verticalAlign=top;spacingLeft=4;spacingRight=4;overflow=hidden;rotatable=0;points=[[0,0.5],[1,0.5]];portConstraint=eastwest;whiteSpace=wrap;html=1;" vertex="1" parent="Ge20OjVHV2di81C7ZLqA-0">
          <mxGeometry y="138" width="330" height="26" as="geometry" />
        </mxCell>
        <mxCell id="Ge20OjVHV2di81C7ZLqA-6" value="" style="html=1;verticalAlign=bottom;endArrow=block;curved=0;rounded=0;" edge="1" parent="WIyWlLk6GJQsqaUBKTNV-1" source="hpsonxkA_LG1c_KUoqw7-20" target="Ge20OjVHV2di81C7ZLqA-0">
          <mxGeometry width="80" relative="1" as="geometry">
            <mxPoint x="690" y="213" as="sourcePoint" />
            <mxPoint x="830" y="255" as="targetPoint" />
          </mxGeometry>
        </mxCell>
        <mxCell id="Ge20OjVHV2di81C7ZLqA-7" value="" style="html=1;verticalAlign=bottom;endArrow=block;curved=0;rounded=0;" edge="1" parent="WIyWlLk6GJQsqaUBKTNV-1" source="hpsonxkA_LG1c_KUoqw7-166" target="Ge20OjVHV2di81C7ZLqA-0">
          <mxGeometry width="80" relative="1" as="geometry">
            <mxPoint x="830" y="134" as="sourcePoint" />
            <mxPoint x="698" as="targetPoint" />
          </mxGeometry>
        </mxCell>
      </root>
    </mxGraphModel>
  </diagram>
</mxfile>
